<svg width="23" height="24" viewBox="0 0 23 24" fill="none" xmlns="http://www.w3.org/2000/svg">
<g clip-path="url(#clip0_1448_34808)">
<path d="M11.4997 4C7.26547 4 3.83301 7.5817 3.83301 12C3.83301 16.4183 7.26547 20 11.4997 20C15.7339 20 19.1663 16.4183 19.1663 12C19.1615 7.5838 15.7319 4.00505 11.4997 4ZM11.4997 19.2C7.68891 19.2 4.59967 15.9764 4.59967 12C4.59967 8.02355 7.68891 4.8 11.4997 4.8C15.3104 4.8 18.3997 8.02355 18.3997 12C18.3952 15.9745 15.3086 19.1953 11.4997 19.2Z" fill="#474444"/>
<path d="M22.4188 2.47624C22.0672 2.32334 21.6618 2.40744 21.393 2.68904C20.4555 3.66229 19.93 4.98634 19.9336 6.36624V11.6002C19.9356 12.1069 20.2424 12.5577 20.7003 12.7266V20.4002C20.7003 21.063 21.2151 21.6002 21.8503 21.6002C22.4854 21.6002 23.0003 21.063 23.0003 20.4002V3.38384C23.0011 2.98614 22.7712 2.62749 22.4188 2.47624ZM22.2336 20.4002C22.2336 20.6211 22.062 20.8002 21.8503 20.8002C21.6386 20.8002 21.4669 20.6211 21.4669 20.4002V12.8002H22.2336V20.4002ZM22.2336 12.0002H21.0836C20.8719 12.0002 20.7003 11.8211 20.7003 11.6002V6.36624C20.6974 5.19869 21.1421 4.07844 21.9354 3.25504C21.9663 3.22054 22.0094 3.20074 22.0546 3.20024C22.0791 3.20054 22.1033 3.20584 22.1259 3.21584C22.1926 3.24214 22.2359 3.30984 22.2336 3.38424V12.0002Z" fill="#474444"/>
<path d="M8.43372 9.2002C7.58689 9.2002 6.90039 9.91654 6.90039 10.8002C6.90039 11.6838 7.58689 12.4002 8.43372 12.4002C9.28056 12.4002 9.96706 11.6838 9.96706 10.8002C9.96706 9.91654 9.28056 9.2002 8.43372 9.2002ZM8.43372 11.6002C8.01028 11.6002 7.66706 11.242 7.66706 10.8002C7.66706 10.3583 8.01028 10.0002 8.43372 10.0002C8.85716 10.0002 9.20039 10.3583 9.20039 10.8002C9.20039 11.242 8.85716 11.6002 8.43372 11.6002Z" fill="#474444"/>
<path d="M11.5325 9.469L10.8586 8.7658C10.7777 8.68185 10.7325 8.5676 10.7329 8.4486C10.732 7.7595 10.1969 7.2011 9.5365 7.2002H8.00317C7.68601 7.20105 7.38202 7.3324 7.15715 7.5658L5.71658 9.069C5.49147 9.3026 5.36531 9.6205 5.36622 9.9518V11.6486C5.36531 11.9799 5.49147 12.2978 5.71658 12.5314L6.39048 13.2346C6.47137 13.3185 6.51665 13.4328 6.51622 13.5518C6.51708 14.2409 7.05221 14.7993 7.7126 14.8002H8.47927C8.79643 14.7993 9.10041 14.6679 9.32528 14.4346L10.3825 13.3314C10.4634 13.2477 10.5726 13.2005 10.6865 13.2002C11.3469 13.1993 11.882 12.6409 11.8829 11.9518V10.3518C11.8838 10.0205 11.7576 9.7026 11.5325 9.469ZM11.1162 11.9518C11.116 12.1993 10.9237 12.4 10.6865 12.4002C10.3693 12.401 10.0654 12.5324 9.84048 12.7658L8.78325 13.869C8.70237 13.9527 8.59316 13.9998 8.47927 14.0002H7.7126C7.47536 14 7.28307 13.7993 7.28288 13.5518C7.28379 13.2205 7.15763 12.9026 6.93252 12.669L6.25862 11.9658C6.17773 11.8818 6.13245 11.7676 6.13288 11.6486V9.9518C6.1325 9.8328 6.17773 9.71855 6.25862 9.6346L7.69918 8.1314C7.78007 8.0477 7.88927 8.00055 8.00317 8.0002H9.5365C9.77373 8.0004 9.96602 8.20105 9.96622 8.4486C9.9653 8.7799 10.0915 9.0978 10.3166 9.3314L10.9905 10.0346C11.0714 10.1185 11.1166 10.2328 11.1162 10.3518V11.9518Z" fill="#474444"/>
<path d="M15.2212 12.9173L13.6878 11.3173C13.5381 11.1611 13.2954 11.1612 13.1457 11.3174C13.0739 11.3924 13.0335 11.4941 13.0335 11.6001V12.4001C13.0335 12.621 12.8619 12.8001 12.6502 12.8001C12.015 12.8001 11.5002 13.3374 11.5002 14.0001C11.5002 14.221 11.3285 14.4001 11.1168 14.4001C10.4817 14.4001 9.96683 14.9374 9.96683 15.6001C9.96683 15.821 9.79519 16.0001 9.5835 16.0001H8.81683C8.60514 16.0002 8.43355 16.1793 8.43359 16.4002C8.43359 16.5063 8.47399 16.6079 8.54581 16.6829L10.0791 18.2829C10.151 18.3579 10.2485 18.4001 10.3502 18.4001H11.1168C11.752 18.4001 12.2668 17.8629 12.2668 17.2001C12.2668 16.9792 12.4385 16.8001 12.6502 16.8001C13.2853 16.8001 13.8002 16.2629 13.8002 15.6001C13.8002 15.3792 13.9718 15.2001 14.1835 15.2001C14.8186 15.2001 15.3335 14.6629 15.3335 14.0001V13.2001C15.3335 13.094 15.2931 12.9923 15.2212 12.9173ZM14.5668 14.0001C14.5668 14.221 14.3952 14.4001 14.1835 14.4001C13.5484 14.4001 13.0335 14.9374 13.0335 15.6001C13.0335 15.821 12.8619 16.0001 12.6502 16.0001C12.015 16.0001 11.5002 16.5374 11.5002 17.2001C11.5002 17.421 11.3285 17.6001 11.1168 17.6001H10.5089L9.73261 16.7901C10.3053 16.712 10.7335 16.2028 10.7335 15.6001C10.7335 15.3792 10.9051 15.2001 11.1168 15.2001C11.752 15.2001 12.2668 14.6629 12.2668 14.0001C12.2668 13.7792 12.4385 13.6001 12.6502 13.6001C13.2277 13.6002 13.7157 13.1533 13.7906 12.5557L14.5668 13.3657V14.0001Z" fill="#474444"/>
<path d="M17.204 9.7857L17.1381 9.7173L15.2214 7.7173L13.6222 6.0489C13.0489 5.451 12.1198 5.45115 11.5468 6.0493C10.9738 6.6474 10.974 7.617 11.5472 8.2149L11.6131 8.2833L13.5298 10.2833L15.1291 11.9517C15.7023 12.5496 16.6314 12.5494 17.2044 11.9513C17.7774 11.3532 17.7773 10.3836 17.204 9.7857ZM12.136 6.5697C12.2615 6.46055 12.4196 6.40055 12.583 6.4001H12.5845C12.7702 6.4007 12.9483 6.4776 13.0801 6.6141L14.0251 7.6001H12.0463C11.7984 7.2897 11.8385 6.8284 12.136 6.5697ZM12.8091 8.4001H14.7917L15.9417 9.6001H13.9591L12.8091 8.4001ZM16.6149 11.4305C16.4894 11.5397 16.3312 11.5997 16.1679 11.6001H16.1664C15.9805 11.5995 15.8025 11.5225 15.6707 11.3857L14.7258 10.4001H16.7046C16.9525 10.7105 16.9123 11.1718 16.6149 11.4305Z" fill="#474444"/>
<path d="M3.06667 2.3999V5.5999H2.3V2.3999H1.53333V5.5999H0.766667V2.3999H0V7.5999C0.00186875 8.22605 0.285823 8.81485 0.766667 9.1895V20.3999C0.766667 21.0627 1.28153 21.5999 1.91667 21.5999C2.5518 21.5999 3.06667 21.0627 3.06667 20.3999V9.1895C3.54751 8.81485 3.83147 8.22605 3.83333 7.5999V2.3999H3.06667ZM2.3 20.3999C2.3 20.6208 2.12836 20.7999 1.91667 20.7999C1.70497 20.7999 1.53333 20.6208 1.53333 20.3999V9.5999H2.3V20.3999ZM3.06667 7.5999C3.06667 8.26265 2.5518 8.7999 1.91667 8.7999C1.28153 8.7999 0.766667 8.26265 0.766667 7.5999V6.3999H3.06667V7.5999Z" fill="#474444"/>
</g>
<defs>
<clipPath id="clip0_1448_34808">
<rect width="23" height="24" fill="white"/>
</clipPath>
</defs>
</svg>
