<svg width="14" height="10" viewBox="0 0 14 10" fill="none" xmlns="http://www.w3.org/2000/svg">
<path d="M3.81818 5.33333C4.19576 5.33333 4.56487 5.21604 4.87882 4.99627C5.19276 4.77651 5.43746 4.46415 5.58195 4.0987C5.72645 3.73325 5.76425 3.33111 5.69059 2.94315C5.61693 2.55519 5.4351 2.19882 5.16811 1.91912C4.90112 1.63941 4.56095 1.44893 4.19063 1.37176C3.8203 1.29459 3.43644 1.3342 3.0876 1.48557C2.73876 1.63695 2.4406 1.89329 2.23083 2.22219C2.02106 2.55109 1.90909 2.93777 1.90909 3.33333C1.90909 3.86377 2.11023 4.37247 2.46825 4.74755C2.82627 5.12262 3.31186 5.33333 3.81818 5.33333ZM3.81818 2.66667C3.94404 2.66667 4.06708 2.70577 4.17173 2.77902C4.27638 2.85227 4.35794 2.95639 4.40611 3.07821C4.45427 3.20003 4.46687 3.33407 4.44232 3.46339C4.41776 3.59271 4.35716 3.7115 4.26816 3.80474C4.17916 3.89797 4.06577 3.96147 3.94233 3.98719C3.81889 4.01291 3.69094 3.99971 3.57466 3.94925C3.45838 3.89879 3.35899 3.81335 3.28906 3.70371C3.21914 3.59408 3.18182 3.46519 3.18182 3.33333C3.18182 3.15652 3.24886 2.98695 3.3682 2.86193C3.48755 2.7369 3.64941 2.66667 3.81818 2.66667ZM12.0909 1.33333H7C6.83123 1.33333 6.66936 1.40357 6.55002 1.5286C6.43068 1.65362 6.36364 1.82319 6.36364 2V6H1.27273V0.666667C1.27273 0.489856 1.20568 0.320287 1.08634 0.195262C0.966999 0.070238 0.805138 0 0.636364 0C0.467589 0 0.305728 0.070238 0.186387 0.195262C0.0670452 0.320287 0 0.489856 0 0.666667V9.33333C0 9.51014 0.0670452 9.67971 0.186387 9.80474C0.305728 9.92976 0.467589 10 0.636364 10C0.805138 10 0.966999 9.92976 1.08634 9.80474C1.20568 9.67971 1.27273 9.51014 1.27273 9.33333V7.33333H12.7273V9.33333C12.7273 9.51014 12.7943 9.67971 12.9137 9.80474C13.033 9.92976 13.1949 10 13.3636 10C13.5324 10 13.6943 9.92976 13.8136 9.80474C13.933 9.67971 14 9.51014 14 9.33333V3.33333C14 2.8029 13.7989 2.29419 13.4408 1.91912C13.0828 1.54405 12.5972 1.33333 12.0909 1.33333ZM12.7273 6H7.63636V2.66667H12.0909C12.2597 2.66667 12.4215 2.7369 12.5409 2.86193C12.6602 2.98695 12.7273 3.15652 12.7273 3.33333V6Z" fill="black"/>
</svg>
