<svg width="16" height="18" viewBox="0 0 16 18" fill="none" xmlns="http://www.w3.org/2000/svg">
<path fill-rule="evenodd" clip-rule="evenodd" d="M4.19792 0.928711C3.57084 0.928711 3.0625 1.43705 3.0625 2.06413V3.21013H2.58333C1.1566 3.21013 0 4.36673 0 5.79346V14.8351C0 16.2619 1.1566 17.4185 2.58333 17.4185H12.9167C14.3434 17.4185 15.5 16.2619 15.5 14.8351V5.79346C15.5 4.36673 14.3434 3.21013 12.9167 3.21013H12.5625V1.97384C12.5625 1.39663 12.0946 0.928711 11.5174 0.928711C10.9402 0.928711 10.4723 1.39663 10.4723 1.97384V3.21013H5.33333V2.06413C5.33333 1.43705 4.82499 0.928711 4.19792 0.928711ZM2.58333 5.21013H12.9167C13.2388 5.21013 13.5 5.4713 13.5 5.79346V14.8351C13.5 15.1573 13.2388 15.4185 12.9167 15.4185H2.58333C2.26117 15.4185 2 15.1573 2 14.8351V5.79346C2 5.4713 2.26117 5.21013 2.58333 5.21013ZM6.61462 7.77593C6.61462 7.19872 6.1467 6.7308 5.5695 6.7308H4.2153C3.6381 6.7308 3.17018 7.19872 3.17018 7.77593C3.17018 8.35314 3.6381 8.82105 4.21531 8.82105H5.5695C6.14671 8.82105 6.61462 8.35314 6.61462 7.77593Z" fill="#189B58"/>
</svg>
