<svg width="29" height="29" viewBox="0 0 29 29" fill="none" xmlns="http://www.w3.org/2000/svg">
<g clip-path="url(#clip0_1448_34864)">
<path d="M17.548 14.1422C17.5477 13.9265 17.3729 13.7516 17.1574 13.7516C16.9414 13.7516 16.7666 13.9265 16.7669 14.1422C16.7666 14.3579 16.9415 14.5327 17.1575 14.5327C17.3729 14.5327 17.5477 14.3579 17.548 14.1422Z" fill="#474444"/>
<path d="M22.5582 19.2204L22.5582 18.4393C22.5936 18.4326 23.3622 18.5113 24.0061 17.8674C24.3751 17.4984 24.5782 17.0079 24.578 16.4861V16.0955L24.9685 16.0954C26.0473 16.0961 26.9223 15.2222 26.9216 14.1427C26.9219 13.0633 26.0487 12.1894 24.969 12.1898L24.578 12.1896L24.578 11.7991C24.5784 10.7196 23.7048 9.84554 22.6249 9.84587L22.5581 9.84587L22.5581 9.06485C22.5581 8.20138 21.8596 7.50231 20.9958 7.50231C20.1324 7.50198 19.433 8.20091 19.4333 9.06457L19.4333 12.1895L8.84991 12.1895L8.84991 9.06488C8.8506 8.20213 8.15131 7.50157 7.28782 7.50228C6.42421 7.50195 5.72511 8.20094 5.72508 9.06491L5.72508 9.84593L5.65846 9.84593C4.57891 9.84554 3.70489 10.7192 3.70522 11.7991L3.70522 12.1897L3.31471 12.1898C2.23598 12.1891 1.36091 13.063 1.36163 14.1425C1.36132 15.2219 2.23443 16.0958 3.31432 16.0955L3.70524 16.0956V16.4862C3.70486 17.5657 4.57846 18.4398 5.65837 18.4394H5.72511L5.72508 19.2204C5.72511 20.084 6.42365 20.783 7.28748 20.783C8.15087 20.7833 8.85024 20.0844 8.84991 19.2207L8.84991 16.0958L19.4333 16.0958L19.4333 19.2204C19.4326 20.0832 20.1319 20.7837 20.9954 20.783C21.8591 20.7833 22.5582 20.0843 22.5582 19.2204ZM24.9689 12.971C25.615 12.9708 26.1407 13.4929 26.1404 14.1429C26.1409 14.7898 25.6168 15.3146 24.9687 15.3142L24.578 15.3144L24.5781 12.9709L24.9689 12.971ZM22.6251 10.6271C23.2727 10.6269 23.7971 11.1509 23.7968 11.799L23.7968 16.4863C23.797 17.134 23.2731 17.6583 22.6249 17.658L22.5582 17.6581L22.5582 10.6271L22.6251 10.6271ZM3.31429 15.3142C2.6682 15.3144 2.14257 14.7923 2.14284 14.1423C2.14237 13.4954 2.66643 12.9706 3.31457 12.971L3.70519 12.9708L3.70519 15.3143L3.31429 15.3142ZM5.65818 17.6581C5.01052 17.6583 4.48615 17.1343 4.48643 16.4862L4.48643 11.7989C4.48621 11.1513 5.01019 10.6269 5.65829 10.6272L5.72505 10.6271L5.72505 17.658L5.65818 17.6581ZM8.06864 19.2208C8.06889 19.6523 7.71964 20.0019 7.28762 20.0017C6.85474 20.0017 6.50632 19.6516 6.50629 19.2204C6.50629 18.7585 6.5063 9.57035 6.5063 9.06488C6.5063 8.63658 6.85214 8.28339 7.28795 8.28355C7.71804 8.2832 8.06903 8.6318 8.06864 9.06457L8.06864 19.2208ZM8.84994 15.3145V12.9708L19.4333 12.9708L19.4333 15.3145L8.84994 15.3145ZM20.9953 20.0017C20.5652 20.002 20.2142 19.6534 20.2146 19.2206L20.2146 9.06446C20.2143 8.63296 20.5636 8.28338 20.9956 8.28358C21.4285 8.28358 21.7769 8.63368 21.7769 9.0649C21.7769 9.57043 21.7769 18.7659 21.7769 19.2204C21.7769 19.6486 21.4311 20.0018 20.9953 20.0017Z" fill="#474444"/>
<path d="M15.9856 14.1421C15.9856 13.9263 15.8107 13.7514 15.595 13.7514L11.1277 13.7514C10.9119 13.7514 10.737 13.9263 10.737 14.1421C10.737 14.3578 10.9119 14.5327 11.1276 14.5327L15.5949 14.5327C15.8107 14.5327 15.9856 14.3578 15.9856 14.1421Z" fill="#474444"/>
</g>
<defs>
<clipPath id="clip0_1448_34864">
<rect width="20" height="20" fill="white" transform="translate(14.1426) rotate(45)"/>
</clipPath>
</defs>
</svg>
