<svg width="13" height="10" viewBox="0 0 13 10" fill="none" xmlns="http://www.w3.org/2000/svg">
<path d="M6.68635 5.12941C7.00208 4.85773 7.25531 4.5217 7.42888 4.14413C7.60244 3.76657 7.69227 3.3563 7.69226 2.94118C7.69226 2.16113 7.38056 1.41303 6.82572 0.861451C6.27088 0.309873 5.51836 1.05242e-07 4.7337 1.05242e-07C3.94904 1.05242e-07 3.19652 0.309873 2.64168 0.861451C2.08684 1.41303 1.77514 2.16113 1.77514 2.94118C1.77513 3.3563 1.86496 3.76657 2.03852 4.14413C2.21209 4.5217 2.46532 4.85773 2.78105 5.12941C1.95273 5.50229 1.24997 6.10443 0.756789 6.86385C0.263605 7.62327 0.000870915 8.50783 0 9.41177C0 9.56777 0.0623409 9.71739 0.173309 9.82771C0.284276 9.93803 0.434781 10 0.591713 10C0.748644 10 0.899149 9.93803 1.01012 9.82771C1.12108 9.71739 1.18343 9.56777 1.18343 9.41177C1.18343 8.47571 1.55747 7.57799 2.22328 6.91609C2.88908 6.2542 3.79211 5.88235 4.7337 5.88235C5.67529 5.88235 6.57832 6.2542 7.24412 6.91609C7.90993 7.57799 8.28398 8.47571 8.28398 9.41177C8.28398 9.56777 8.34632 9.71739 8.45728 9.82771C8.56825 9.93803 8.71876 10 8.87569 10C9.03262 10 9.18312 9.93803 9.29409 9.82771C9.40506 9.71739 9.4674 9.56777 9.4674 9.41177C9.46653 8.50783 9.2038 7.62327 8.71061 6.86385C8.21743 6.10443 7.51467 5.50229 6.68635 5.12941ZM4.7337 4.70588C4.38261 4.70588 4.03941 4.60238 3.74749 4.40848C3.45557 4.21457 3.22804 3.93896 3.09369 3.6165C2.95933 3.29404 2.92418 2.93922 2.99267 2.5969C3.06117 2.25458 3.23023 1.94014 3.47849 1.69334C3.72675 1.44654 4.04305 1.27847 4.38739 1.21038C4.73173 1.14229 5.08865 1.17723 5.41302 1.3108C5.73738 1.44437 6.01462 1.67055 6.20967 1.96076C6.40473 2.25096 6.50884 2.59215 6.50884 2.94118C6.50884 3.40921 6.32182 3.85807 5.98891 4.18901C5.65601 4.51996 5.2045 4.70588 4.7337 4.70588ZM10.497 4.89412C10.8757 4.47019 11.123 3.9465 11.2093 3.38608C11.2956 2.82566 11.2171 2.2524 10.9832 1.73529C10.7494 1.21819 10.3702 0.779292 9.89135 0.471425C9.41246 0.163559 8.85427 -0.000151529 8.28398 1.05242e-07C8.12704 1.05242e-07 7.97654 0.0619747 7.86557 0.17229C7.7546 0.282606 7.69226 0.432226 7.69226 0.588235C7.69226 0.744245 7.7546 0.893865 7.86557 1.00418C7.97654 1.1145 8.12704 1.17647 8.28398 1.17647C8.75477 1.17647 9.20628 1.36239 9.53919 1.69334C9.87209 2.02429 10.0591 2.47315 10.0591 2.94118C10.0583 3.25014 9.97586 3.55347 9.8201 3.82084C9.66434 4.0882 9.4407 4.31022 9.17154 4.46471C9.08382 4.51501 9.01054 4.58686 8.95874 4.67338C8.90694 4.75989 8.87834 4.85818 8.87569 4.95882C8.87321 5.05868 8.89636 5.15753 8.94294 5.24603C8.98953 5.33454 9.05802 5.4098 9.14196 5.46471L9.37273 5.61765L9.44965 5.65882C10.1629 5.99513 10.7646 6.52705 11.1839 7.19195C11.6033 7.85685 11.8227 8.62702 11.8165 9.41177C11.8165 9.56777 11.8788 9.71739 11.9898 9.82771C12.1008 9.93803 12.2513 10 12.4082 10C12.5651 10 12.7156 9.93803 12.8266 9.82771C12.9376 9.71739 12.9999 9.56777 12.9999 9.41177C13.0048 8.50908 12.7773 7.62015 12.3393 6.82945C11.9012 6.03875 11.267 5.37254 10.497 4.89412Z" fill="black"/>
</svg>
