<svg width="12" height="12" viewBox="0 0 12 12" fill="none" xmlns="http://www.w3.org/2000/svg">
<path d="M6.52784e-05 4.49174C-0.00157194 4.59308 0.027622 4.69251 0.0837783 4.77688C0.139935 4.86124 0.220402 4.92655 0.314515 4.96414L5.11527 6.88459L7.03562 11.6855C7.07272 11.7784 7.13681 11.858 7.2196 11.914C7.30239 11.9701 7.40008 12 7.50007 12H7.50817C7.60941 11.9983 7.70777 11.966 7.79024 11.9072C7.8727 11.8484 7.93541 11.766 7.97007 11.6709L11.9701 0.670544C12.0026 0.581092 12.009 0.484201 11.9884 0.39126C11.9678 0.29832 11.9211 0.213193 11.8538 0.145886C11.7864 0.0785798 11.7013 0.0318911 11.6083 0.0113082C11.5154 -0.00927466 11.4185 -0.00289599 11.3291 0.0296943L0.329065 4.02969C0.233923 4.06439 0.151542 4.12713 0.0928018 4.20962C0.0340618 4.29212 0.00172622 4.39049 6.52784e-05 4.49174Z" fill="#FDCD03"/>
</svg>
