<svg width="19" height="19" viewBox="0 0 19 19" fill="none" xmlns="http://www.w3.org/2000/svg">
<path fill-rule="evenodd" clip-rule="evenodd" d="M9.5 19C4.25329 19 0 14.7467 0 9.5C0 4.25329 4.25329 0 9.5 0C14.7467 0 19 4.25329 19 9.5C19 14.7467 14.7467 19 9.5 19ZM9.5 17.2727C13.7928 17.2727 17.2727 13.7928 17.2727 9.5C17.2727 5.20724 13.7928 1.72727 9.5 1.72727C5.20724 1.72727 1.72727 5.20724 1.72727 9.5C1.72727 13.7928 5.20724 17.2727 9.5 17.2727ZM13.8182 8.63636H10.3636V4.31818H8.63636V10.3636H13.8182V8.63636Z" fill="black"/>
</svg>
