<svg width="26" height="25" viewBox="0 0 26 25" fill="none" xmlns="http://www.w3.org/2000/svg">
<path d="M21.7328 3.98242H20.4638C20.2743 3.98242 20.1543 4.0978 20.1543 4.22529H20.1543V8.17152C20.1543 8.33543 20.3564 8.42044 20.5647 8.42044C20.7668 8.42044 20.9751 8.33548 20.9751 8.17152V6.76303H21.6824C22.5158 6.76303 23.1661 6.38051 23.1661 5.38486V5.34848C23.1661 4.35278 22.5347 3.98242 21.7328 3.98242ZM22.3452 5.4456C22.3452 5.91913 22.0927 6.14379 21.6823 6.14379H20.9751V4.67456H21.6823C22.0927 4.67456 22.3452 4.89922 22.3452 5.37275V5.4456Z" fill="#474444"/>
<path d="M14.8821 5.52504C13.6834 4.37251 12.0898 3.73779 10.3947 3.73779C8.69958 3.73779 7.10597 4.37251 5.90733 5.52504C5.76266 5.6641 5.76266 5.88959 5.90733 6.0287C6.05196 6.16776 6.28647 6.16776 6.43109 6.0287C7.48983 5.01074 8.89743 4.45009 10.3947 4.45009C11.8919 4.45009 13.2995 5.01074 14.3582 6.0287C14.4306 6.09823 14.5254 6.133 14.6201 6.133C14.7149 6.133 14.8097 6.09823 14.8821 6.0287C15.0267 5.88964 15.0267 5.6641 14.8821 5.52504Z" fill="#474444"/>
<path d="M13.3543 6.99465C11.7225 5.42561 9.0674 5.42561 7.43565 6.99465C7.29098 7.13371 7.29098 7.35925 7.43565 7.49831C7.58028 7.63737 7.81484 7.63737 7.95946 7.49831C9.30242 6.20705 11.4875 6.20705 12.8305 7.49831C12.9028 7.56784 12.9976 7.60261 13.0924 7.60261C13.1871 7.60261 13.2819 7.56784 13.3543 7.49831C13.4989 7.35925 13.4989 7.13371 13.3543 6.99465Z" fill="#474444"/>
<path d="M11.8505 8.44057C11.0479 7.6689 9.74211 7.6689 8.93956 8.44057C8.79489 8.57964 8.79489 8.80512 8.93956 8.94423C9.08419 9.08335 9.31874 9.0833 9.46337 8.94423C9.97712 8.45029 10.813 8.45029 11.3267 8.94423C11.399 9.01381 11.4939 9.04853 11.5886 9.04853C11.6834 9.04853 11.7782 9.01377 11.8505 8.94423C11.9952 8.80512 11.9952 8.57968 11.8505 8.44057Z" fill="#474444"/>
<path d="M18.2261 15.3768C18.0659 15.292 17.9077 15.1991 17.7562 15.1007L15.3063 13.5093C14.5627 13.0263 13.6954 12.771 12.7981 12.771H8.30138C7.10777 12.771 5.9847 13.2171 5.13899 14.0272C4.7043 14.4436 4.20909 14.792 3.6671 15.0626C3.34657 15.2226 3.14746 15.5376 3.14746 15.8847C3.14746 16.3957 3.57981 16.8114 4.11128 16.8114H5.64436C5.84891 16.8114 6.01476 16.6519 6.01476 16.4553C6.01476 16.2586 5.84891 16.0991 5.64436 16.0991H4.11128C3.98829 16.0991 3.8882 16.0029 3.8882 15.8846C3.8882 15.8045 3.93426 15.7317 4.00845 15.6947C4.61737 15.3907 5.17367 14.9994 5.66178 14.5318C6.36764 13.8556 7.30505 13.4833 8.30133 13.4833H9.30806V16.0991H8.07753C7.87299 16.0991 7.70714 16.2586 7.70714 16.4553C7.70714 16.6519 7.87299 16.8114 8.07753 16.8114H18.2336C18.5381 16.8114 18.7858 16.5732 18.7858 16.2805C18.7858 15.9056 18.5713 15.5593 18.2261 15.3768ZM10.049 16.0992V13.4833H12.7981C13.5471 13.4833 14.271 13.6964 14.8916 14.0995L17.3416 15.6909C17.5117 15.8014 17.6892 15.9057 17.8692 16.0009C17.9158 16.0256 17.9549 16.0595 17.9842 16.0992H10.049Z" fill="#474444"/>
<path d="M10.9666 17.353H9.82255C9.618 17.353 9.45215 17.5125 9.45215 17.7092C9.45215 17.9059 9.618 18.0653 9.82255 18.0653H10.9666C11.1712 18.0653 11.337 17.9059 11.337 17.7092C11.337 17.5125 11.1712 17.353 10.9666 17.353Z" fill="#474444"/>
<path d="M25.6804 17.0539L25.5634 16.8672C25.1225 16.1637 24.3891 15.6683 23.5512 15.508L22.595 15.3251V10.6647H25.0696C25.5792 10.6647 25.9937 10.2661 25.9937 9.77619V2.84013C25.9937 2.35019 25.5791 1.95166 25.0696 1.95166H17.8561C17.3466 1.95166 16.9321 2.35024 16.9321 2.84013V5.47123C16.9321 5.6679 17.0979 5.82738 17.3025 5.82738C17.5071 5.82738 17.6729 5.6679 17.6729 5.47123V2.84013C17.6729 2.74297 17.7551 2.66391 17.8562 2.66391H25.0697C25.1708 2.66391 25.253 2.74297 25.253 2.84013V9.77624C25.253 9.8734 25.1708 9.95246 25.0697 9.95246H17.8561C17.7551 9.95246 17.6729 9.8734 17.6729 9.77624V7.78655C17.6729 7.58987 17.5071 7.4304 17.3025 7.4304C17.0979 7.4304 16.9321 7.58987 16.9321 7.78655V9.77624C16.9321 10.2662 17.3466 10.6647 17.8561 10.6647H20.6623V14.9557L20.1707 14.8617C19.4923 14.7319 18.8309 14.3382 18.3923 14.0533L15.9425 12.462C15.0104 11.8566 13.9232 11.5365 12.7984 11.5365H8.30174C6.80547 11.5365 5.39767 12.0958 4.33772 13.1111C3.667 13.7537 2.82272 14.1919 1.89611 14.3785L1.36433 14.4856C0.573775 14.6448 0 15.3241 0 16.1007V19.5499C0 19.9613 0.252636 20.3352 0.643701 20.5023L2.11899 21.1328C2.20821 21.5814 2.43297 22.0097 2.79341 22.3563C3.27243 22.8169 3.90166 23.0472 4.53094 23.0472C5.16022 23.0472 5.7894 22.8169 6.26846 22.3563C6.57655 22.0601 6.78496 21.704 6.8949 21.3267H19.1959C19.3058 21.704 19.5143 22.0601 19.8224 22.3563C20.2865 22.8025 20.9035 23.0483 21.5599 23.0483C22.2163 23.0483 22.8333 22.8026 23.2975 22.3563C23.6056 22.0601 23.814 21.704 23.9239 21.3267H24.6266C25.3839 21.3267 26 20.7342 26 20.0061V18.1588C25.9999 17.7695 25.8894 17.3874 25.6804 17.0539ZM21.4031 10.6647H21.8542V15.1835L21.4031 15.0972V10.6647ZM5.74461 21.8527C5.42042 22.1644 4.98939 22.3361 4.53089 22.3361C4.07239 22.3361 3.64136 22.1644 3.31717 21.8527C2.79712 21.3527 2.68144 20.6091 2.96957 20.0004C2.97191 19.9955 2.97414 19.9905 2.97648 19.9857C2.98527 19.9676 2.99456 19.9497 3.00405 19.932C3.00852 19.9236 3.01299 19.9152 3.01766 19.9069C3.02625 19.8915 3.03518 19.8761 3.04432 19.8609C3.05062 19.8504 3.05707 19.84 3.06362 19.8297C3.0721 19.8162 3.08068 19.8029 3.08962 19.7896C3.09769 19.7777 3.10602 19.7658 3.11445 19.7541C3.12278 19.7424 3.13106 19.7307 3.13969 19.7192C3.14959 19.7061 3.1599 19.6932 3.17026 19.6803C3.17834 19.6702 3.18621 19.6601 3.19453 19.6502C3.20672 19.6357 3.21947 19.6215 3.23216 19.6073C3.23942 19.5993 3.24638 19.591 3.2538 19.5831C3.27269 19.5629 3.29214 19.5431 3.31214 19.5238C3.31387 19.5221 3.31544 19.5203 3.31717 19.5187C3.32098 19.515 3.32499 19.5116 3.32885 19.508C3.34581 19.492 3.36287 19.4761 3.38029 19.461C3.38481 19.457 3.38958 19.4533 3.39415 19.4494C3.41152 19.4346 3.42899 19.4199 3.44687 19.4059C3.44854 19.4046 3.45032 19.4034 3.45199 19.4021C4.0798 18.9136 4.98528 18.9141 5.61232 19.404C5.61303 19.4046 5.61379 19.4051 5.61456 19.4057C5.6337 19.4207 5.65244 19.4364 5.67108 19.4523C5.67443 19.4552 5.67788 19.4578 5.68118 19.4607C5.70271 19.4794 5.72384 19.4987 5.74456 19.5186C5.7669 19.5401 5.78843 19.5622 5.80935 19.5846C5.81854 19.5945 5.82723 19.6046 5.83611 19.6146C5.84698 19.6268 5.8579 19.6391 5.86836 19.6515C5.88009 19.6656 5.89141 19.6798 5.90259 19.6941C5.90888 19.702 5.91513 19.71 5.92122 19.7181C5.93478 19.7361 5.94798 19.7542 5.96073 19.7726C5.96291 19.7758 5.96505 19.7789 5.96718 19.7821C6.40288 20.4219 6.32874 21.291 5.74461 21.8527ZM22.7736 21.8527C22.4493 22.1644 22.0183 22.3361 21.5598 22.3361C21.1013 22.3361 20.6703 22.1644 20.3461 21.8527C19.7619 21.291 19.6878 20.4218 20.1235 19.782C20.1256 19.7789 20.1277 19.7758 20.1298 19.7728C20.1426 19.7543 20.1558 19.7361 20.1694 19.718C20.1755 19.71 20.1817 19.7021 20.1879 19.6943C20.1991 19.6799 20.2105 19.6656 20.2223 19.6515C20.2327 19.6391 20.2435 19.627 20.2543 19.6149C20.2633 19.6048 20.2721 19.5946 20.2814 19.5846C20.3023 19.5622 20.3238 19.5402 20.3462 19.5187C20.6704 19.207 21.1014 19.0353 21.5599 19.0353C22.0184 19.0353 22.4494 19.207 22.7736 19.5187C22.7959 19.5402 22.8174 19.5623 22.8384 19.5847C22.8476 19.5946 22.8563 19.6047 22.8652 19.6148C22.8761 19.6269 22.887 19.6391 22.8974 19.6515C22.9092 19.6656 22.9205 19.6799 22.9317 19.6942C22.938 19.7021 22.9442 19.7101 22.9503 19.7181C22.9639 19.7362 22.9771 19.7543 22.9898 19.7727C22.992 19.7758 22.9941 19.7789 22.9963 19.7821C23.4318 20.4219 23.3577 21.291 22.7736 21.8527ZM25.2593 20.0061H25.2592C25.2592 20.3415 24.9753 20.6144 24.6265 20.6144H24.0167C24.0022 20.0979 23.8126 19.6051 23.4713 19.201C23.469 19.1983 23.4668 19.1954 23.4645 19.1927C23.4434 19.1679 23.4215 19.1437 23.3992 19.1196C23.3936 19.1134 23.3882 19.1071 23.3824 19.1009C23.3589 19.076 23.3345 19.0515 23.3097 19.0274C23.3055 19.0233 23.3016 19.019 23.2974 19.0149C22.9783 18.7081 22.5869 18.4961 22.1602 18.3935C21.9662 18.3469 21.765 18.3229 21.5598 18.3229C21.3957 18.3229 21.2341 18.3383 21.0767 18.3683C20.6045 18.4583 20.1704 18.6803 19.8223 19.0149C19.8181 19.0189 19.8143 19.0231 19.8102 19.0272C19.7853 19.0514 19.7608 19.076 19.7372 19.101C19.7316 19.1069 19.7265 19.1131 19.721 19.119C19.6985 19.1433 19.6764 19.1678 19.6551 19.1928C19.653 19.1953 19.651 19.1979 19.6489 19.2005C19.3074 19.6046 19.1175 20.0977 19.103 20.6145H6.98773C6.97315 20.097 6.78293 19.6033 6.44056 19.1989C6.43899 19.197 6.43746 19.1951 6.43589 19.1932C6.41354 19.1669 6.39034 19.1412 6.36672 19.1157C6.36236 19.111 6.35829 19.1062 6.35388 19.1015C6.3262 19.0721 6.29776 19.0432 6.26836 19.015C6.14862 18.8998 6.01943 18.799 5.88329 18.7127C5.47471 18.4536 5.0028 18.3241 4.53089 18.3241C3.90166 18.3241 3.27238 18.5544 2.79336 19.015C2.76599 19.0413 2.73954 19.0683 2.71364 19.0956C2.70597 19.1037 2.69861 19.112 2.69104 19.1201C2.67276 19.14 2.65478 19.1601 2.63726 19.1804C2.62949 19.1894 2.62172 19.1985 2.61411 19.2077C2.59598 19.2294 2.57831 19.2514 2.56104 19.2736C2.55566 19.2805 2.55012 19.2873 2.54489 19.2943C2.49848 19.3554 2.45542 19.4184 2.4156 19.483C2.41449 19.4848 2.41342 19.4866 2.4123 19.4885C2.39285 19.5202 2.37422 19.5525 2.35639 19.585C2.35589 19.586 2.35538 19.5869 2.35482 19.5879C2.22568 19.8241 2.13885 20.0797 2.09903 20.3448L0.944629 19.8514C0.820825 19.7985 0.740845 19.6802 0.740845 19.5499V16.1007C0.740845 15.6593 1.06701 15.2732 1.51637 15.1827L2.04815 15.0756C3.11557 14.8606 4.08813 14.3558 4.86071 13.6157C5.78086 12.7342 7.00296 12.2487 8.30189 12.2487H12.7986C13.775 12.2487 14.7188 12.5266 15.5279 13.0521L17.9778 14.6435C18.4694 14.9628 19.2167 15.4053 20.0264 15.5602L23.4069 16.2066C24.0407 16.3278 24.5955 16.7026 24.9291 17.2348L25.0461 17.4215C25.1856 17.644 25.2593 17.899 25.2593 18.1588V20.0061Z" fill="#474444"/>
<path d="M5.32593 19.9212C5.11346 19.7169 4.83112 19.6045 4.53075 19.6045C4.23038 19.6045 3.94798 19.717 3.73562 19.9212C3.52325 20.1254 3.40625 20.3969 3.40625 20.6857C3.40625 20.9746 3.52325 21.2461 3.73562 21.4503C3.94798 21.6545 4.23038 21.767 4.5308 21.767C4.83117 21.767 5.11356 21.6545 5.32593 21.4503C5.76437 21.0287 5.76437 20.3428 5.32593 19.9212ZM4.80207 20.9466C4.7296 21.0163 4.63322 21.0547 4.53075 21.0547C4.42822 21.0547 4.33189 21.0163 4.25942 20.9466C4.18696 20.8769 4.14699 20.7843 4.14699 20.6857C4.14699 20.5871 4.18691 20.4945 4.25942 20.4248C4.33189 20.3551 4.42822 20.3167 4.53075 20.3167C4.63322 20.3167 4.7296 20.3551 4.80207 20.4248C4.95167 20.5687 4.95167 20.8028 4.80207 20.9466Z" fill="#474444"/>
<path d="M22.3547 19.9212C22.1423 19.717 21.8599 19.6045 21.5595 19.6045C21.2591 19.6045 20.9768 19.7169 20.7643 19.9212C20.3259 20.3428 20.3259 21.0287 20.7643 21.4503C20.9768 21.6545 21.2591 21.767 21.5595 21.767C21.8599 21.767 22.1423 21.6545 22.3546 21.4503C22.5671 21.2461 22.684 20.9746 22.684 20.6858C22.684 20.397 22.5671 20.1254 22.3547 19.9212ZM21.8308 20.9467C21.7584 21.0164 21.662 21.0547 21.5595 21.0547C21.457 21.0547 21.3607 21.0164 21.2882 20.9467C21.1386 20.8028 21.1386 20.5687 21.2882 20.4249C21.3607 20.3552 21.457 20.3168 21.5595 20.3168C21.662 20.3168 21.7584 20.3552 21.8309 20.4249C21.9034 20.4946 21.9433 20.5872 21.9433 20.6858C21.9433 20.7843 21.9034 20.8769 21.8308 20.9467Z" fill="#474444"/>
</svg>
