<svg width="17" height="17" viewBox="0 0 17 17" fill="none" xmlns="http://www.w3.org/2000/svg">
<path fill-rule="evenodd" clip-rule="evenodd" d="M7.53142 5.3875C7.97177 4.79408 8.12967 4.16867 7.63165 3.61663C6.51405 2.0528 5.76244 1.08574 5.29099 0.620024C4.39471 -0.26536 2.9203 -0.145598 2.14405 0.619267C1.72712 1.03008 1.58598 1.17116 1.15788 1.60598C-1.22668 3.99183 0.227547 9.03541 4.09342 12.9051C7.95841 16.7739 13.0015 18.2289 15.3911 15.838C15.7861 15.4572 16.1206 15.1225 16.3844 14.8437C17.1451 14.0397 17.2606 12.6303 16.3794 11.7147C15.9276 11.2453 15.0054 10.53 13.3758 9.36427C12.8767 8.91798 12.2849 9.01471 11.7423 9.37065C11.4814 9.54187 11.2914 9.71507 10.9328 10.0741L10.2816 10.7257C10.1958 10.8115 9.03107 10.2282 7.90045 9.09647C6.76922 7.96412 6.18633 6.79934 6.27171 6.71397L6.9234 6.06192C7.03718 5.94803 7.09158 5.89289 7.16134 5.81957C7.30668 5.66682 7.42702 5.52819 7.53142 5.3875ZM11.4829 11.9277L12.1342 11.2759C12.3316 11.0784 12.4595 10.9569 12.5636 10.8731C13.9911 11.8983 14.8179 12.5429 15.1556 12.8938C15.3584 13.1045 15.3269 13.4889 15.1506 13.6752C14.9067 13.933 14.5898 14.2501 14.2009 14.6252C12.6557 16.171 8.5848 14.9965 5.29498 11.7034C2.00412 8.40934 0.83017 4.33781 2.36368 2.80345C2.79005 2.37042 2.92514 2.2354 3.33612 1.83045C3.49021 1.67861 3.90995 1.64452 4.0974 1.82969C4.46037 2.18825 5.13367 3.05036 6.12413 4.43006C6.07286 4.49372 6.00882 4.56565 5.93088 4.64756C5.87368 4.70768 5.82603 4.75599 5.72185 4.86027L5.0708 5.51168C3.96323 6.61915 4.90647 8.50402 6.6989 10.2982C8.4901 12.0912 10.3757 13.0355 11.4829 11.9277Z" fill="black"/>
</svg>
