<svg width="12" height="12" viewBox="0 0 12 12" fill="none" xmlns="http://www.w3.org/2000/svg">
<path d="M9.60331 7.30185C9.45791 7.44275 9.39111 7.64653 9.42423 7.84638L9.92329 10.6083C9.96539 10.8424 9.86659 11.0793 9.67067 11.2146C9.47868 11.3549 9.22326 11.3718 9.01387 11.2595L6.52758 9.96272C6.44113 9.91669 6.34514 9.89199 6.2469 9.88919H6.09477C6.042 9.89705 5.99036 9.91389 5.9432 9.93971L3.45635 11.2426C3.33341 11.3044 3.19419 11.3263 3.05778 11.3044C2.72545 11.2415 2.50371 10.9249 2.55816 10.5909L3.05778 7.82897C3.0909 7.62744 3.0241 7.42254 2.8787 7.2794L0.851612 5.31461C0.682079 5.15013 0.623136 4.90313 0.700604 4.68027C0.775827 4.45797 0.967815 4.29574 1.19966 4.25925L3.98965 3.8545C4.20184 3.83261 4.38822 3.70349 4.48365 3.51263L5.71304 0.992096C5.74223 0.93596 5.77984 0.884314 5.82531 0.840527L5.87584 0.801232C5.90222 0.772041 5.93254 0.747902 5.96622 0.728254L6.02741 0.7058L6.12284 0.666504H6.35917C6.57025 0.688397 6.75606 0.814705 6.85318 1.00332L8.09885 3.51263C8.18867 3.6962 8.36325 3.82363 8.56478 3.8545L11.3548 4.25925C11.5905 4.29293 11.7876 4.45572 11.8656 4.68027C11.9392 4.90538 11.8757 5.15238 11.7028 5.31461L9.60331 7.30185Z" fill="#FFCA38"/>
</svg>
