<svg width="13" height="14" viewBox="0 0 13 14" fill="none" xmlns="http://www.w3.org/2000/svg">
<path d="M11.6933 9.92221V4.07779C12.0046 3.96097 12.2834 3.76091 12.5033 3.49637C12.7233 3.23184 12.8773 2.91148 12.9509 2.56534C13.0245 2.2192 13.0152 1.85861 12.9241 1.51736C12.8329 1.1761 12.6628 0.86537 12.4296 0.614278C12.1964 0.363187 11.9079 0.17996 11.591 0.0817715C11.2741 -0.0164169 10.9393 -0.0263516 10.6179 0.0528985C10.2965 0.132149 9.99901 0.297988 9.75337 0.534874C9.50773 0.771759 9.32196 1.07193 9.21348 1.40726H3.78652C3.67804 1.07193 3.49227 0.771759 3.24663 0.534874C3.00099 0.297988 2.70352 0.132149 2.38211 0.0528985C2.06069 -0.0263516 1.72585 -0.0164169 1.40897 0.0817715C1.0921 0.17996 0.803558 0.363187 0.570401 0.614278C0.337245 0.86537 0.167106 1.1761 0.0759307 1.51736C-0.0152442 1.85861 -0.0244693 2.2192 0.04912 2.56534C0.122709 2.91148 0.276703 3.23184 0.496669 3.49637C0.716634 3.76091 0.995367 3.96097 1.30674 4.07779V9.92221C0.995367 10.039 0.716634 10.2391 0.496669 10.5036C0.276703 10.7682 0.122709 11.0885 0.04912 11.4347C-0.0244693 11.7808 -0.0152442 12.1414 0.0759307 12.4826C0.167106 12.8239 0.337245 13.1346 0.570401 13.3857C0.803558 13.6368 1.0921 13.82 1.40897 13.9182C1.72585 14.0164 2.06069 14.0264 2.38211 13.9471C2.70352 13.8679 3.00099 13.702 3.24663 13.4651C3.49227 13.2282 3.67804 12.9281 3.78652 12.5927H9.21348C9.32196 12.9281 9.50773 13.2282 9.75337 13.4651C9.99901 13.702 10.2965 13.8679 10.6179 13.9471C10.9393 14.0264 11.2741 14.0164 11.591 13.9182C11.9079 13.82 12.1964 13.6368 12.4296 13.3857C12.6628 13.1346 12.8329 12.8239 12.9241 12.4826C13.0152 12.1414 13.0245 11.7808 12.9509 11.4347C12.8773 11.0885 12.7233 10.7682 12.5033 10.5036C12.2834 10.2391 12.0046 10.039 11.6933 9.92221ZM11.0441 1.40726C11.1725 1.40726 11.298 1.44826 11.4048 1.52508C11.5115 1.6019 11.5947 1.71108 11.6438 1.83882C11.693 1.96657 11.7058 2.10713 11.6808 2.24274C11.6557 2.37835 11.5939 2.50292 11.5031 2.60069C11.4123 2.69846 11.2967 2.76504 11.1707 2.79201C11.0448 2.81899 10.9143 2.80514 10.7957 2.75223C10.6771 2.69932 10.5757 2.60971 10.5043 2.49475C10.433 2.37978 10.3949 2.24462 10.3949 2.10635C10.3949 1.92094 10.4633 1.74313 10.5851 1.61202C10.7068 1.48092 10.8719 1.40726 11.0441 1.40726ZM1.9559 1.40726C2.08429 1.40726 2.2098 1.44826 2.31655 1.52508C2.42331 1.6019 2.50651 1.71108 2.55564 1.83882C2.60478 1.96657 2.61763 2.10713 2.59258 2.24274C2.56754 2.37835 2.50571 2.50292 2.41492 2.60069C2.32414 2.69846 2.20847 2.76504 2.08254 2.79201C1.95662 2.81899 1.8261 2.80514 1.70748 2.75223C1.58886 2.69932 1.48748 2.60971 1.41615 2.49475C1.34482 2.37978 1.30674 2.24462 1.30674 2.10635C1.30674 1.92094 1.37514 1.74313 1.49688 1.61202C1.61862 1.48092 1.78373 1.40726 1.9559 1.40726ZM1.9559 12.5927C1.82751 12.5927 1.702 12.5517 1.59525 12.4749C1.48849 12.3981 1.40529 12.2889 1.35616 12.1612C1.30702 12.0334 1.29417 11.8929 1.31922 11.7573C1.34426 11.6216 1.40609 11.4971 1.49688 11.3993C1.58766 11.3015 1.70333 11.235 1.82926 11.208C1.95518 11.181 2.0857 11.1949 2.20432 11.2478C2.32294 11.3007 2.42432 11.3903 2.49565 11.5052C2.56698 11.6202 2.60506 11.7554 2.60506 11.8936C2.60506 12.0791 2.53666 12.2569 2.41492 12.388C2.29318 12.5191 2.12807 12.5927 1.9559 12.5927ZM9.21348 11.1946H3.78652C3.68959 10.9014 3.53328 10.6351 3.32893 10.415C3.12458 10.1949 2.87731 10.0266 2.60506 9.92221V4.07779C2.87731 3.97341 3.12458 3.80507 3.32893 3.585C3.53328 3.36493 3.68959 3.09864 3.78652 2.80545H9.21348C9.31041 3.09864 9.46672 3.36493 9.67107 3.585C9.87542 3.80507 10.1227 3.97341 10.3949 4.07779V9.92221C10.1227 10.0266 9.87542 10.1949 9.67107 10.415C9.46672 10.6351 9.31041 10.9014 9.21348 11.1946ZM11.0441 12.5927C10.9157 12.5927 10.7902 12.5517 10.6834 12.4749C10.5767 12.3981 10.4935 12.2889 10.4444 12.1612C10.3952 12.0334 10.3824 11.8929 10.4074 11.7573C10.4325 11.6216 10.4943 11.4971 10.5851 11.3993C10.6759 11.3015 10.7915 11.235 10.9175 11.208C11.0434 11.181 11.1739 11.1949 11.2925 11.2478C11.4111 11.3007 11.5125 11.3903 11.5839 11.5052C11.6552 11.6202 11.6933 11.7554 11.6933 11.8936C11.6933 12.0791 11.6249 12.2569 11.5031 12.388C11.3814 12.5191 11.2163 12.5927 11.0441 12.5927Z" fill="black"/>
</svg>
