<svg width="16" height="16" viewBox="0 0 16 16" fill="none" xmlns="http://www.w3.org/2000/svg">
<path d="M15.9944 4.65739C15.9982 4.6068 15.9982 4.556 15.9944 4.50541L14.3949 0.505901C14.3325 0.347805 14.2213 0.213726 14.0775 0.123112C13.9337 0.0324989 13.7648 -0.00993632 13.5952 0.00196248H2.39916C2.23899 0.00180739 2.08247 0.0497604 1.94986 0.13961C1.81726 0.22946 1.71468 0.357067 1.65542 0.505901L0.0559803 4.50541C0.0521254 4.556 0.0521254 4.6068 0.0559803 4.65739C0.0294063 4.70192 0.010484 4.75059 0 4.80137C0.00890134 5.3543 0.160924 5.89548 0.441241 6.37212C0.721557 6.84877 1.1206 7.24461 1.59944 7.52104V15.2001C1.59944 15.4122 1.68369 15.6157 1.83367 15.7657C1.98365 15.9157 2.18706 16 2.39916 16H13.5952C13.8073 16 14.0107 15.9157 14.1607 15.7657C14.3107 15.6157 14.3949 15.4122 14.3949 15.2001V7.55304C14.8784 7.27385 15.2804 6.87298 15.561 6.39025C15.8416 5.90752 15.991 5.35975 15.9944 4.80137C16.0019 4.75367 16.0019 4.70509 15.9944 4.65739ZM8.79691 14.4002H7.19747V11.2006H8.79691V14.4002ZM12.7955 14.4002H10.3963V10.4007C10.3963 10.1885 10.3121 9.98508 10.1621 9.83507C10.0121 9.68506 9.80873 9.60079 9.59663 9.60079H6.39775C6.18565 9.60079 5.98224 9.68506 5.83227 9.83507C5.68229 9.98508 5.59803 10.1885 5.59803 10.4007V14.4002H3.19888V8.00098C3.65429 7.99841 4.10391 7.89861 4.51765 7.70824C4.9314 7.51787 5.29974 7.24133 5.59803 6.89712C5.89822 7.23758 6.2674 7.51025 6.68105 7.69702C7.0947 7.88379 7.54335 7.98038 7.99719 7.98038C8.45103 7.98038 8.89968 7.88379 9.31333 7.69702C9.72698 7.51025 10.0962 7.23758 10.3963 6.89712C10.6946 7.24133 11.063 7.51787 11.4767 7.70824C11.8905 7.89861 12.3401 7.99841 12.7955 8.00098V14.4002ZM12.7955 6.40118C12.3713 6.40118 11.9645 6.23263 11.6645 5.93261C11.3646 5.63258 11.1961 5.22567 11.1961 4.80137C11.1961 4.58923 11.1118 4.38577 10.9618 4.23576C10.8119 4.08575 10.6084 4.00147 10.3963 4.00147C10.1842 4.00147 9.98084 4.08575 9.83086 4.23576C9.68089 4.38577 9.59663 4.58923 9.59663 4.80137C9.59663 5.22567 9.42812 5.63258 9.12816 5.93261C8.82821 6.23263 8.42139 6.40118 7.99719 6.40118C7.57299 6.40118 7.16617 6.23263 6.86622 5.93261C6.56626 5.63258 6.39775 5.22567 6.39775 4.80137C6.39775 4.58923 6.3135 4.38577 6.16352 4.23576C6.01354 4.08575 5.81013 4.00147 5.59803 4.00147C5.38593 4.00147 5.18252 4.08575 5.03255 4.23576C4.88257 4.38577 4.79831 4.58923 4.79831 4.80137C4.80619 5.01146 4.77262 5.22105 4.69952 5.41816C4.62642 5.61527 4.51521 5.79605 4.37226 5.95018C4.22931 6.1043 4.05741 6.22876 3.86637 6.31643C3.67533 6.40411 3.4689 6.45329 3.25886 6.46117C2.83466 6.47708 2.42152 6.32379 2.11031 6.03502C1.95622 5.89204 1.8318 5.72009 1.74414 5.52901C1.65648 5.33793 1.60731 5.13145 1.59944 4.92136L2.94297 1.60177H13.0514L14.3949 4.92136C14.3646 5.32452 14.1828 5.70126 13.8861 5.97579C13.5894 6.25033 13.1997 6.40232 12.7955 6.40118Z" fill="black"/>
</svg>
