<svg width="22" height="22" viewBox="0 0 22 22" fill="none" xmlns="http://www.w3.org/2000/svg">
<g clip-path="url(#clip0_1448_34877)">
<path d="M16.5207 3.56503C16.5207 2.23545 15.4429 1.15771 14.1133 1.15771C12.784 1.15771 11.706 2.23545 11.706 3.56503V5.09698H12.5816V3.56503C12.5816 2.71891 13.2674 2.03308 14.1133 2.03308C14.9595 2.03308 15.6453 2.71891 15.6453 3.56503V6.40993H6.89159V3.56503C6.89159 2.23545 5.81366 1.15771 4.48428 1.15771C3.15469 1.15771 2.07696 2.23545 2.07696 3.56503V5.09698H2.95233V3.56503C2.95233 2.71891 3.63816 2.03308 4.48428 2.03308C5.33019 2.03308 6.01602 2.71891 6.01602 3.56503V14.2885H-1.8623V15.1638H6.01622V16.9681C5.50651 17.0376 5.00902 17.1772 4.53757 17.3834C3.90203 17.6683 3.21079 17.8072 2.51454 17.7899C1.8179 17.8076 1.12585 17.6685 0.489914 17.3834C-0.250013 17.0552 -1.05325 16.8951 -1.8623 16.9146V17.7899C-1.16545 17.7725 -0.473614 17.9114 0.162527 18.1967C0.902253 18.5246 1.70549 18.6847 2.51454 18.6653C3.32299 18.6843 4.12563 18.5244 4.86496 18.1967C5.5005 17.9118 6.19174 17.7729 6.88799 17.7899C7.58524 17.7725 8.27768 17.9114 8.91402 18.1967C9.65375 18.5244 10.4566 18.6845 11.2654 18.6653C12.0739 18.6845 12.8767 18.5244 13.6163 18.1967C14.2524 17.9114 14.9444 17.7725 15.6415 17.7899C16.3389 17.7725 17.0316 17.9114 17.6683 18.1967C18.4088 18.5246 19.2127 18.6847 20.0223 18.6653C20.8312 18.6843 21.6342 18.5242 22.374 18.1967C23.0103 17.9116 23.7021 17.7727 24.3992 17.7899V16.9146C23.5901 16.8955 22.7869 17.0556 22.047 17.3834C21.4108 17.6683 20.719 17.8072 20.0223 17.7899C19.3247 17.8076 18.6318 17.6685 17.9949 17.3834C17.5249 17.1784 17.0288 17.0392 16.5207 16.9693V15.1638H24.3992V14.2885H16.5207V3.56503ZM15.6453 16.9146H15.6415C14.833 16.8955 14.0302 17.0556 13.2911 17.3834C12.6547 17.6685 11.9625 17.8074 11.2654 17.7899C10.5682 17.8074 9.87575 17.6685 9.2392 17.3834C8.50088 17.056 7.69904 16.8959 6.89159 16.9146V15.1638H15.6453V16.9146ZM15.6453 14.2885H6.89159V12.5377H15.6453V14.2885ZM15.6453 11.6623H6.89159V9.91161H15.6453V11.6623ZM15.6453 9.03624H6.89159V7.2853H15.6453V9.03624Z" fill="#474444"/>
<path d="M18.2904 18.7112C17.7058 18.726 17.1256 18.6095 16.592 18.3706C15.9718 18.0957 15.2986 17.9616 14.6205 17.9779C13.9432 17.9619 13.2706 18.0961 12.6514 18.3706C12.1184 18.6095 11.5385 18.726 10.9545 18.7112C10.3704 18.726 9.79033 18.6095 9.25708 18.3706C8.63756 18.0961 7.965 17.9619 7.2874 17.9779C6.61014 17.9619 5.93774 18.0961 5.31839 18.3706C4.78598 18.6093 4.20691 18.7256 3.62364 18.7112C3.03987 18.726 2.4603 18.6095 1.92755 18.3706C1.30769 18.0959 0.634796 17.9618 -0.0429688 17.9779V18.7112C0.540802 18.6966 1.12038 18.8131 1.65329 19.0519C2.27298 19.3267 2.94588 19.4608 3.62364 19.4447C4.3009 19.4606 4.9733 19.3265 5.59265 19.0519C6.12506 18.8133 6.70413 18.6969 7.2874 18.7112C7.87151 18.6966 8.45158 18.8129 8.98467 19.0519C9.60436 19.3265 10.2769 19.4606 10.9545 19.4447C11.6318 19.4606 12.3043 19.3265 12.9239 19.0519C13.4568 18.8129 14.0365 18.6966 14.6205 18.7112C15.2047 18.6966 15.785 18.8131 16.3184 19.0519C16.9388 19.3267 17.6122 19.4608 18.2904 19.4447C18.968 19.4606 19.6407 19.3265 20.2604 19.0519C20.7935 18.8133 21.3731 18.6968 21.957 18.7112V17.9779C21.2793 17.9619 20.6064 18.0961 19.9865 18.3706C19.4536 18.6093 18.874 18.7258 18.2904 18.7112Z" fill="#474444"/>
</g>
<defs>
<clipPath id="clip0_1448_34877">
<rect width="22" height="22" fill="white"/>
</clipPath>
</defs>
</svg>
