<svg width="15" height="15" viewBox="0 0 15 15" fill="none" xmlns="http://www.w3.org/2000/svg">
<path d="M2.73 11.25L2.1975 11.7825C2.05781 11.923 1.97941 12.1131 1.97941 12.3113C1.97941 12.5094 2.05781 12.6995 2.1975 12.84C2.33802 12.9797 2.52811 13.0581 2.72625 13.0581C2.92439 13.0581 3.11448 12.9797 3.255 12.84L3.7875 12.3075C3.91037 12.164 3.97457 11.9795 3.96728 11.7907C3.95999 11.602 3.88174 11.4229 3.74817 11.2893C3.6146 11.1558 3.43555 11.0775 3.24679 11.0702C3.05803 11.0629 2.87348 11.1271 2.73 11.25ZM2.25 7.5C2.25 7.30109 2.17098 7.11032 2.03033 6.96967C1.88968 6.82902 1.69891 6.75 1.5 6.75H0.75C0.551088 6.75 0.360322 6.82902 0.21967 6.96967C0.0790176 7.11032 0 7.30109 0 7.5C0 7.69891 0.0790176 7.88968 0.21967 8.03033C0.360322 8.17098 0.551088 8.25 0.75 8.25H1.5C1.69891 8.25 1.88968 8.17098 2.03033 8.03033C2.17098 7.88968 2.25 7.69891 2.25 7.5ZM7.5 2.25C7.69891 2.25 7.88968 2.17098 8.03033 2.03033C8.17098 1.88968 8.25 1.69891 8.25 1.5V0.75C8.25 0.551088 8.17098 0.360322 8.03033 0.21967C7.88968 0.0790176 7.69891 0 7.5 0C7.30109 0 7.11032 0.0790176 6.96967 0.21967C6.82902 0.360322 6.75 0.551088 6.75 0.75V1.5C6.75 1.69891 6.82902 1.88968 6.96967 2.03033C7.11032 2.17098 7.30109 2.25 7.5 2.25ZM2.73 3.7875C2.8697 3.92606 3.05825 4.00417 3.255 4.005C3.35371 4.00557 3.45155 3.98665 3.54293 3.94933C3.63431 3.91201 3.71742 3.85701 3.7875 3.7875C3.92719 3.64698 4.00559 3.45689 4.00559 3.25875C4.00559 3.06061 3.92719 2.87052 3.7875 2.73L3.255 2.1975C3.11152 2.07463 2.92697 2.01043 2.73821 2.01772C2.54945 2.02501 2.3704 2.10326 2.23683 2.23683C2.10326 2.3704 2.02501 2.54945 2.01772 2.73821C2.01043 2.92697 2.07463 3.11152 2.1975 3.255L2.73 3.7875ZM11.73 4.005C11.9268 4.00417 12.1153 3.92606 12.255 3.7875L12.7875 3.255C12.866 3.18776 12.9298 3.10503 12.9748 3.01198C13.0198 2.91893 13.0451 2.81758 13.0491 2.71429C13.0531 2.611 13.0357 2.508 12.998 2.41176C12.9603 2.31551 12.9031 2.2281 12.83 2.15501C12.7569 2.08192 12.6695 2.02473 12.5732 1.98702C12.477 1.94932 12.374 1.93191 12.2707 1.9359C12.1674 1.93989 12.0661 1.96519 11.973 2.01021C11.88 2.05522 11.7972 2.11899 11.73 2.1975L11.25 2.73C11.1103 2.87052 11.0319 3.06061 11.0319 3.25875C11.0319 3.45689 11.1103 3.64698 11.25 3.7875C11.3822 3.91902 11.5587 3.99656 11.745 4.005H11.73ZM14.25 6.75H13.5C13.3011 6.75 13.1103 6.82902 12.9697 6.96967C12.829 7.11032 12.75 7.30109 12.75 7.5C12.75 7.69891 12.829 7.88968 12.9697 8.03033C13.1103 8.17098 13.3011 8.25 13.5 8.25H14.25C14.4489 8.25 14.6397 8.17098 14.7803 8.03033C14.921 7.88968 15 7.69891 15 7.5C15 7.30109 14.921 7.11032 14.7803 6.96967C14.6397 6.82902 14.4489 6.75 14.25 6.75ZM7.5 12.75C7.30109 12.75 7.11032 12.829 6.96967 12.9697C6.82902 13.1103 6.75 13.3011 6.75 13.5V14.25C6.75 14.4489 6.82902 14.6397 6.96967 14.7803C7.11032 14.921 7.30109 15 7.5 15C7.69891 15 7.88968 14.921 8.03033 14.7803C8.17098 14.6397 8.25 14.4489 8.25 14.25V13.5C8.25 13.3011 8.17098 13.1103 8.03033 12.9697C7.88968 12.829 7.69891 12.75 7.5 12.75ZM12.27 11.25C12.1275 11.1707 11.9631 11.1401 11.8016 11.1627C11.6401 11.1852 11.4904 11.2598 11.3751 11.3751C11.2598 11.4904 11.1852 11.6401 11.1627 11.8016C11.1401 11.9631 11.1707 12.1275 11.25 12.27L11.7825 12.8025C11.923 12.9422 12.1131 13.0206 12.3113 13.0206C12.5094 13.0206 12.6995 12.9422 12.84 12.8025C12.9797 12.662 13.0581 12.4719 13.0581 12.2738C13.0581 12.0756 12.9797 11.8855 12.84 11.745L12.27 11.25ZM7.5 3.375C6.68415 3.375 5.88663 3.61693 5.20827 4.07019C4.52992 4.52345 4.00121 5.16769 3.689 5.92143C3.37679 6.67518 3.2951 7.50458 3.45426 8.30475C3.61342 9.10492 4.00629 9.83992 4.58318 10.4168C5.16008 10.9937 5.89508 11.3866 6.69525 11.5457C7.49542 11.7049 8.32482 11.6232 9.07857 11.311C9.83231 10.9988 10.4766 10.4701 10.9298 9.79173C11.3831 9.11337 11.625 8.31585 11.625 7.5C11.623 6.40659 11.1878 5.35853 10.4146 4.58537C9.64147 3.81222 8.59341 3.37698 7.5 3.375ZM7.5 10.125C6.98082 10.125 6.47331 9.97105 6.04163 9.68261C5.60995 9.39417 5.2735 8.9842 5.07482 8.50454C4.87614 8.02489 4.82415 7.49709 4.92544 6.98789C5.02672 6.47869 5.27673 6.01096 5.64384 5.64384C6.01096 5.27673 6.47869 5.02672 6.98789 4.92544C7.49709 4.82415 8.02489 4.87614 8.50454 5.07482C8.9842 5.2735 9.39417 5.60995 9.68261 6.04163C9.97105 6.47331 10.125 6.98082 10.125 7.5C10.125 8.19619 9.84844 8.86387 9.35616 9.35616C8.86387 9.84844 8.19619 10.125 7.5 10.125Z" fill="black"/>
</svg>
