<svg width="15" height="14" viewBox="0 0 15 14" fill="none" xmlns="http://www.w3.org/2000/svg">
<path d="M14.3182 6.99735H2.72727V3.08298C2.72488 2.83079 2.78968 2.58274 2.91467 2.36565C3.03965 2.14857 3.22006 1.97072 3.43636 1.85136C3.67555 1.71822 3.94812 1.66183 4.21885 1.68945C4.08105 2.11806 4.06147 2.57747 4.16229 3.0168C4.2631 3.45612 4.48037 3.85821 4.79001 4.17851L5.51314 4.92117C5.57644 4.98621 5.65159 5.0378 5.7343 5.073C5.81702 5.10821 5.90567 5.12632 5.99521 5.12632C6.08474 5.12632 6.1734 5.10821 6.25611 5.073C6.33883 5.0378 6.41398 4.98621 6.47727 4.92117L8.88761 2.44562C8.95094 2.38061 9.00117 2.30343 9.03544 2.21848C9.06972 2.13353 9.08736 2.04247 9.08736 1.95051C9.08736 1.85856 9.06972 1.7675 9.03544 1.68255C9.00117 1.5976 8.95094 1.52041 8.88761 1.4554L8.16451 0.712738C7.76204 0.301244 7.22969 0.0509482 6.66342 0.00696885C6.09714 -0.0370105 5.5342 0.12822 5.07606 0.472876C4.66299 0.307187 4.21677 0.247651 3.77619 0.299448C3.33561 0.351245 2.91403 0.512805 2.5481 0.770079C2.18217 1.02735 1.88298 1.37255 1.67655 1.77564C1.47012 2.17874 1.3627 2.62752 1.36364 3.08298V6.99735H0.681818C0.500989 6.99735 0.327566 7.07112 0.1997 7.20245C0.0718342 7.33377 0 7.51189 0 7.69761C0 7.88333 0.0718342 8.06145 0.1997 8.19277C0.327566 8.3241 0.500989 8.39788 0.681818 8.39788H1.36364V10.4987C1.36493 10.9317 1.49671 11.3537 1.74087 11.7067C1.98503 12.0598 2.3296 12.3265 2.72727 12.4704V13.2997C2.72727 13.4855 2.79911 13.6636 2.92697 13.7949C3.05484 13.9262 3.22826 14 3.40909 14C3.58992 14 3.76334 13.9262 3.89121 13.7949C4.01907 13.6636 4.09091 13.4855 4.09091 13.2997V12.5995H10.9091V13.2997C10.9091 13.4855 10.9809 13.6636 11.1088 13.7949C11.2367 13.9262 11.4101 14 11.5909 14C11.7717 14 11.9452 13.9262 12.073 13.7949C12.2009 13.6636 12.2727 13.4855 12.2727 13.2997V12.4704C12.6704 12.3266 13.015 12.0598 13.2591 11.7068C13.5033 11.3537 13.6351 10.9317 13.6364 10.4987V8.39788H14.3182C14.499 8.39788 14.6724 8.3241 14.8003 8.19277C14.9282 8.06145 15 7.88333 15 7.69761C15 7.51189 14.9282 7.33377 14.8003 7.20245C14.6724 7.07112 14.499 6.99735 14.3182 6.99735ZM5.75417 1.70296C5.94613 1.50633 6.20617 1.39591 6.47727 1.39591C6.74838 1.39591 7.00842 1.50633 7.20038 1.70296L7.4414 1.95051L5.99523 3.43584L5.75419 3.18829C5.56264 2.9912 5.45506 2.7241 5.45505 2.44563C5.45505 2.16715 5.56263 1.90005 5.75417 1.70296ZM12.2727 10.4987C12.2726 10.6844 12.2007 10.8624 12.0729 10.9937C11.9451 11.125 11.7717 11.1988 11.5909 11.1989H3.40909C3.2283 11.1988 3.05495 11.125 2.92711 10.9937C2.79927 10.8624 2.72739 10.6844 2.72727 10.4987V8.39788H12.2727V10.4987Z" fill="black"/>
</svg>
