<svg width="21" height="18" viewBox="0 0 21 18" fill="none" xmlns="http://www.w3.org/2000/svg">
<path d="M10.459 18C11.2065 18 11.8125 17.3683 11.8125 16.5891C11.8125 15.8098 11.2065 15.1781 10.459 15.1781C9.71147 15.1781 9.10548 15.8098 9.10548 16.5891C9.10548 17.3683 9.71147 18 10.459 18Z" fill="#474444"/>
<path d="M20.7798 4.6759C18.0838 1.66066 14.4332 4.27553e-05 10.4998 0C6.56687 4.27553e-05 2.91619 1.66066 0.2202 4.6759C-0.088647 5.02136 -0.070395 5.56247 0.261011 5.88446C0.592457 6.20641 1.11151 6.18743 1.4204 5.84192C3.80258 3.17758 7.02706 1.71026 10.5001 1.71021C13.9729 1.71026 17.1974 3.17758 19.5796 5.84192C19.7411 6.0226 19.9602 6.11401 20.1798 6.11401C20.3801 6.11401 20.5809 6.038 20.739 5.88446C21.0704 5.56243 21.0887 5.02136 20.7798 4.6759Z" fill="#474444"/>
<path d="M17.7677 8.20723C15.7749 6.11419 13.1938 4.96154 10.4999 4.96163C7.80537 4.96167 5.22426 6.11436 3.23206 8.20732C2.91295 8.54256 2.91496 9.08397 3.23657 9.41661C3.55817 9.74924 4.07755 9.74715 4.39665 9.41191C6.07849 7.645 8.246 6.67189 10.4999 6.67184C12.7532 6.67176 14.9207 7.64491 16.6032 9.41199C16.7635 9.5804 16.9744 9.66472 17.1854 9.66472C17.3943 9.66472 17.6033 9.58203 17.7633 9.41652C18.0849 9.08384 18.0868 8.54243 17.7677 8.20723Z" fill="#474444"/>
<path d="M14.4847 11.7488C13.4175 10.6466 11.8877 9.962 10.4923 9.962C10.4924 9.962 10.4921 9.962 10.4923 9.962H10.4325C10.4328 9.962 10.4323 9.962 10.4325 9.962C9.03707 9.962 7.50657 10.6467 6.43939 11.7488C6.11758 12.0812 6.11516 12.6226 6.43402 12.9581C6.59443 13.1269 6.80558 13.2114 7.01677 13.2114C7.22541 13.2114 7.43414 13.1289 7.59406 12.9638C8.35379 12.1791 9.46765 11.6722 10.432 11.6722C10.4319 11.6722 10.4321 11.6722 10.432 11.6722H10.4918C10.4916 11.6722 10.4919 11.6722 10.4918 11.6722C11.456 11.6722 12.5703 12.1792 13.33 12.9638C13.6518 13.2961 14.1712 13.2937 14.49 12.9581C14.8089 12.6227 14.8065 12.0812 14.4847 11.7488Z" fill="#474444"/>
</svg>
