<svg width="20" height="19" viewBox="0 0 20 19" fill="none" xmlns="http://www.w3.org/2000/svg">
<path d="M18.7191 12.8966L14.4259 8.61293C14.5158 8.17542 14.5603 7.72982 14.5589 7.28318C14.5586 6.05852 14.2495 4.85372 13.6603 3.78012C13.0711 2.70652 12.2208 1.79878 11.1879 1.14081C10.155 0.48283 8.97291 0.0958526 7.75089 0.0156437C6.52886 -0.0645653 5.30634 0.164583 4.19632 0.681907C4.05568 0.746151 3.93286 0.843755 3.83851 0.966244C3.74416 1.08873 3.68114 1.2324 3.65492 1.38478C3.6288 1.53521 3.63934 1.68973 3.68563 1.83524C3.73193 1.98074 3.81262 2.11293 3.92087 2.22062L8.0526 6.34285L6.34292 8.05253L2.22069 3.9208C2.11209 3.81424 1.97948 3.73532 1.83403 3.69069C1.68857 3.64606 1.53452 3.63703 1.38484 3.66435C1.23342 3.68961 1.09038 3.7512 0.967971 3.84383C0.84556 3.93647 0.747425 4.05739 0.681973 4.19625C0.162919 5.30992 -0.0660303 6.53679 0.0164242 7.76271C0.0988787 8.98863 0.490058 10.1738 1.15357 11.2079C1.81709 12.2421 2.73138 13.0916 3.81139 13.6774C4.89141 14.2633 6.10207 14.5665 7.33073 14.5588C7.77737 14.5603 8.22297 14.5157 8.66049 14.4258L12.9442 18.719C13.0325 18.8081 13.1375 18.8787 13.2533 18.927C13.369 18.9752 13.4932 19 13.6186 19C13.7439 19 13.8681 18.9752 13.9838 18.927C14.0996 18.8787 14.2046 18.8081 14.2929 18.719C14.382 18.6307 14.4526 18.5257 14.5008 18.41C14.5491 18.2942 14.5739 18.1701 14.5739 18.0447C14.5739 17.9193 14.5491 17.7951 14.5008 17.6794C14.4526 17.5636 14.382 17.4586 14.2929 17.3703L9.6388 12.7162C9.5225 12.6006 9.37827 12.5172 9.22015 12.4739C9.06203 12.4306 8.8954 12.429 8.73647 12.4692C8.27787 12.592 7.80548 12.6559 7.33073 12.6592C6.62031 12.6654 5.91567 12.5311 5.2574 12.2638C4.59913 11.9966 4.00025 11.6017 3.49524 11.102C2.99024 10.6023 2.5891 10.0076 2.31493 9.35222C2.04075 8.69681 1.89897 7.99362 1.89775 7.28318C1.89652 6.965 1.92193 6.64728 1.97373 6.33335L5.69704 10.0662C5.78534 10.1552 5.89039 10.2258 6.00613 10.2741C6.12188 10.3223 6.24602 10.3471 6.37141 10.3471C6.4968 10.3471 6.62095 10.3223 6.73669 10.2741C6.85244 10.2258 6.95749 10.1552 7.04579 10.0662L10.0662 7.01723C10.2374 6.84012 10.3331 6.60342 10.3331 6.3571C10.3331 6.11077 10.2374 5.87408 10.0662 5.69697L6.37141 1.97367C6.68541 1.92239 7.00308 1.89697 7.32124 1.89768C8.74791 1.9002 10.1153 2.46871 11.1232 3.47841C12.1311 4.48811 12.6972 5.8565 12.6972 7.28318C12.6939 7.75792 12.6301 8.23031 12.5073 8.68891C12.4671 8.84784 12.4687 9.01447 12.512 9.17259C12.5552 9.33071 12.6387 9.47494 12.7542 9.59125L17.4084 14.2454C17.5872 14.4242 17.8298 14.5247 18.0827 14.5247C18.3357 14.5247 18.5782 14.4242 18.7571 14.2454C18.936 14.0665 19.0364 13.8239 19.0364 13.571C19.0364 13.3181 18.936 13.0755 18.7571 12.8966H18.7191Z" fill="#564FF0"/>
</svg>
