<svg width="13" height="15" viewBox="0 0 13 15" fill="none" xmlns="http://www.w3.org/2000/svg">
<path fill-rule="evenodd" clip-rule="evenodd" d="M5.77778 6.50001C5.77778 7.84612 4.85711 8.97719 3.61111 9.29789L3.61111 14.4445L2.16667 14.4445L2.16667 9.29789C0.920669 8.97719 -2.88423e-07 7.84612 -3.47263e-07 6.50001C-4.17004e-07 4.90452 1.2934 3.61112 2.88889 3.61112C4.48438 3.61112 5.77778 4.90452 5.77778 6.50001ZM2.16667 2.16668L2.16667 1.23031e-05L3.61111 1.22399e-05L3.61111 2.16668L2.16667 2.16668ZM13 10.1111C13 11.4572 12.0793 12.5883 10.8333 12.909L10.8333 14.4445L9.38889 14.4445L9.38889 12.909C8.14289 12.5883 7.22222 11.4572 7.22222 10.1111C7.22222 8.51563 8.51562 7.22223 10.1111 7.22223C11.7066 7.22223 13 8.51563 13 10.1111ZM10.8333 5.77779L10.8333 1.19242e-05L9.38889 1.19874e-05L9.38889 5.77779L10.8333 5.77779ZM10.1112 8.66673C10.9089 8.66673 11.5556 9.31343 11.5556 10.1112C11.5556 10.9089 10.9089 11.5556 10.1112 11.5556C9.31342 11.5556 8.66672 10.9089 8.66672 10.1112C8.66672 9.31343 9.31342 8.66673 10.1112 8.66673ZM2.88889 5.05557C3.68663 5.05557 4.33333 5.70227 4.33333 6.50001C4.33333 7.29776 3.68663 7.94446 2.88889 7.94446C2.09114 7.94446 1.44444 7.29776 1.44444 6.50001C1.44444 5.70227 2.09114 5.05557 2.88889 5.05557Z" fill="white"/>
</svg>
