<svg width="37" height="37" viewBox="0 0 37 37" fill="none" xmlns="http://www.w3.org/2000/svg">
<circle cx="18.5" cy="18.5" r="18.5" fill="#424242"/>
<path fill-rule="evenodd" clip-rule="evenodd" d="M24.2541 14.287C24.5971 14.6528 24.5785 15.2273 24.2127 15.5702L20.0771 19.4474L24.2127 23.3245C24.5785 23.6674 24.5971 24.242 24.2541 24.6078C23.9112 24.9736 23.3366 24.9921 22.9708 24.6492L18.1287 20.1097C17.9457 19.9381 17.8418 19.6983 17.8418 19.4474C17.8418 19.1964 17.9457 18.9567 18.1287 18.785L22.9708 14.2456C23.3366 13.9026 23.9112 13.9211 24.2541 14.287Z" fill="#FDB824"/>
<path fill-rule="evenodd" clip-rule="evenodd" d="M13.2459 14.287C12.9029 14.6528 12.9215 15.2273 13.2873 15.5702L17.4229 19.4474L13.2873 23.3245C12.9215 23.6674 12.9029 24.242 13.2459 24.6078C13.5888 24.9736 14.1634 24.9921 14.5292 24.6492L19.3713 20.1097C19.5543 19.9381 19.6582 19.6983 19.6582 19.4474C19.6582 19.1964 19.5543 18.9567 19.3713 18.785L14.5292 14.2456C14.1634 13.9026 13.5888 13.9211 13.2459 14.287Z" fill="#FDB824"/>
</svg>
