<svg width="14" height="10" viewBox="0 0 14 10" fill="none" xmlns="http://www.w3.org/2000/svg">
<path fill-rule="evenodd" clip-rule="evenodd" d="M14 8.75C14 9.44036 13.4302 10 12.7273 10H1.27273C0.569819 10 0 9.44036 0 8.75V6.80505L0.31772 6.62454C0.904353 6.29125 1.27273 5.67748 1.27273 5C1.27273 4.32252 0.904353 3.70875 0.31772 3.37546L0 3.19495V1.25C0 0.559644 0.569819 0 1.27273 0H12.7273C13.4302 0 14 0.559644 14 1.25V3.19495L13.6823 3.37546C13.0956 3.70875 12.7273 4.32252 12.7273 5C12.7273 5.67748 13.0956 6.29125 13.6823 6.62454L14 6.80505V8.75ZM11.4545 5C11.4545 3.99968 11.9375 3.08149 12.7273 2.49967V1.25H8.90909C8.90909 1.59518 8.62418 1.875 8.27273 1.875C7.92127 1.875 7.63636 1.59518 7.63636 1.25H1.27273V2.49967C2.06246 3.08149 2.54545 3.99968 2.54545 5C2.54545 6.00032 2.06246 6.91851 1.27273 7.50033V8.75H7.63636C7.63636 8.40482 7.92127 8.125 8.27273 8.125C8.62418 8.125 8.90909 8.40482 8.90909 8.75H12.7273V7.50033C11.9375 6.91851 11.4545 6.00032 11.4545 5ZM8.27273 7.5C8.62418 7.5 8.90909 7.22018 8.90909 6.875C8.90909 6.52982 8.62418 6.25 8.27273 6.25C7.92127 6.25 7.63636 6.52982 7.63636 6.875C7.63636 7.22018 7.92127 7.5 8.27273 7.5ZM8.90909 5C8.90909 5.34518 8.62418 5.625 8.27273 5.625C7.92127 5.625 7.63636 5.34518 7.63636 5C7.63636 4.65482 7.92127 4.375 8.27273 4.375C8.62418 4.375 8.90909 4.65482 8.90909 5ZM8.27273 3.75C8.62418 3.75 8.90909 3.47018 8.90909 3.125C8.90909 2.77982 8.62418 2.5 8.27273 2.5C7.92127 2.5 7.63636 2.77982 7.63636 3.125C7.63636 3.47018 7.92127 3.75 8.27273 3.75Z" fill="#359F32"/>
</svg>
