<svg width="21" height="21" viewBox="0 0 21 21" fill="none" xmlns="http://www.w3.org/2000/svg">
<path d="M19.1833 0.677309C18.4665 0.553842 17.7406 0.490289 17.0133 0.487309C14.5316 0.485275 12.1018 1.19688 10.0133 2.53731C7.91942 1.21448 5.48992 0.52034 3.01327 0.537309C2.28591 0.540289 1.56007 0.603842 0.843268 0.727309C0.608475 0.767787 0.395849 0.890767 0.243681 1.0741C0.0915139 1.25744 0.00980452 1.48908 0.0132682 1.72731V13.7273C0.0111266 13.8742 0.0413944 14.0198 0.101918 14.1538C0.162442 14.2877 0.251734 14.4066 0.363441 14.5021C0.475149 14.5975 0.606525 14.6672 0.748224 14.7061C0.889923 14.7451 1.03846 14.7523 1.18327 14.7273C2.61629 14.4792 4.08447 14.5204 5.50133 14.8484C6.9182 15.1764 8.25509 15.7847 9.43327 16.6373L9.55327 16.7073H9.66327C9.77417 16.7535 9.89312 16.7773 10.0133 16.7773C10.1334 16.7773 10.2524 16.7535 10.3633 16.7073H10.4733L10.5933 16.6373C11.7632 15.7656 13.0963 15.1376 14.5134 14.7907C15.9306 14.4437 17.4029 14.3847 18.8433 14.6173C18.9881 14.6423 19.1366 14.6351 19.2783 14.5961C19.42 14.5572 19.5514 14.4875 19.6631 14.3921C19.7748 14.2966 19.8641 14.1777 19.9246 14.0437C19.9851 13.9098 20.0154 13.7642 20.0133 13.6173V1.61731C20.0029 1.38946 19.9149 1.17202 19.7639 1.00105C19.6129 0.830074 19.4081 0.715846 19.1833 0.677309ZM9.01327 13.9673C7.16315 12.994 5.10379 12.486 3.01327 12.4873C2.68327 12.4873 2.35327 12.4873 2.01327 12.4873V2.48731C2.34633 2.46811 2.68021 2.46811 3.01327 2.48731C5.14665 2.48495 7.23348 3.111 9.01327 4.28731V13.9673ZM18.0133 12.5273C17.6733 12.5273 17.3433 12.5273 17.0133 12.5273C14.9227 12.526 12.8634 13.034 11.0133 14.0073V4.28731C12.7931 3.111 14.8799 2.48495 17.0133 2.48731C17.3463 2.46811 17.6802 2.46811 18.0133 2.48731V12.5273ZM19.1833 16.6773C18.4665 16.5538 17.7406 16.4903 17.0133 16.4873C14.5316 16.4853 12.1018 17.1969 10.0133 18.5373C7.92478 17.1969 5.4949 16.4853 3.01327 16.4873C2.28591 16.4903 1.56007 16.5538 0.843268 16.6773C0.713096 16.698 0.588291 16.7442 0.476031 16.8132C0.36377 16.8823 0.266269 16.9728 0.189135 17.0797C0.112 17.1866 0.0567537 17.3077 0.026572 17.436C-0.00360967 17.5643 -0.00813089 17.6973 0.0132682 17.8273C0.0640869 18.087 0.215759 18.316 0.435059 18.464C0.654359 18.6121 0.923408 18.6672 1.18327 18.6173C2.61629 18.3692 4.08447 18.4104 5.50133 18.7384C6.9182 19.0664 8.25509 19.6747 9.43327 20.5273C9.60263 20.6479 9.80536 20.7127 10.0133 20.7127C10.2212 20.7127 10.4239 20.6479 10.5933 20.5273C11.7714 19.6747 13.1083 19.0664 14.5252 18.7384C15.9421 18.4104 17.4102 18.3692 18.8433 18.6173C19.1031 18.6672 19.3722 18.6121 19.5915 18.464C19.8108 18.316 19.9624 18.087 20.0133 17.8273C20.0347 17.6973 20.0301 17.5643 20 17.436C19.9698 17.3077 19.9145 17.1866 19.8374 17.0797C19.7603 16.9728 19.6628 16.8823 19.5505 16.8132C19.4382 16.7442 19.3134 16.698 19.1833 16.6773V16.6773Z" fill="white"/>
</svg>
