<svg width="14" height="12" viewBox="0 0 14 12" fill="none" xmlns="http://www.w3.org/2000/svg">
<path d="M11.9 2H9.8V1.33333C9.8 0.979711 9.6525 0.640573 9.38995 0.390524C9.1274 0.140476 8.7713 0 8.4 0H5.6C5.2287 0 4.8726 0.140476 4.61005 0.390524C4.3475 0.640573 4.2 0.979711 4.2 1.33333V2H2.1C1.54305 2 1.0089 2.21071 0.615076 2.58579C0.221249 2.96086 0 3.46957 0 4V10C0 10.5304 0.221249 11.0391 0.615076 11.4142C1.0089 11.7893 1.54305 12 2.1 12H11.9C12.457 12 12.9911 11.7893 13.3849 11.4142C13.7788 11.0391 14 10.5304 14 10V4C14 3.46957 13.7788 2.96086 13.3849 2.58579C12.9911 2.21071 12.457 2 11.9 2ZM5.6 1.33333H8.4V2H5.6V1.33333ZM12.6 10C12.6 10.1768 12.5263 10.3464 12.395 10.4714C12.2637 10.5964 12.0857 10.6667 11.9 10.6667H2.1C1.91435 10.6667 1.7363 10.5964 1.60503 10.4714C1.47375 10.3464 1.4 10.1768 1.4 10V6.26L4.676 7.33333C4.75033 7.34294 4.82567 7.34294 4.9 7.33333H9.1C9.17591 7.332 9.25128 7.32078 9.324 7.3L12.6 6.26V10ZM12.6 4.85333L8.988 6H5.012L1.4 4.85333V4C1.4 3.82319 1.47375 3.65362 1.60503 3.5286C1.7363 3.40357 1.91435 3.33333 2.1 3.33333H11.9C12.0857 3.33333 12.2637 3.40357 12.395 3.5286C12.5263 3.65362 12.6 3.82319 12.6 4V4.85333Z" fill="#4A4A4A"/>
</svg>
