<svg width="15" height="15" viewBox="0 0 15 15" fill="none" xmlns="http://www.w3.org/2000/svg">
<path fill-rule="evenodd" clip-rule="evenodd" d="M6.70518 4.43879C7.06799 3.94987 7.19808 3.43459 6.78776 2.97976C5.86697 1.69132 5.24771 0.894547 4.85928 0.510841C4.12083 -0.218631 2.90605 -0.119959 2.2665 0.510218C1.92299 0.848692 1.8067 0.964926 1.45398 1.32318C-0.51067 3.28889 0.687477 7.44433 3.87259 10.6326C7.05698 13.8201 11.212 15.0189 13.1808 13.049C13.5063 12.7353 13.7818 12.4595 13.9992 12.2298C14.6259 11.5674 14.7211 10.4062 13.9951 9.65181C13.6228 9.26505 12.863 8.67569 11.5204 7.71528C11.1092 7.34758 10.6216 7.42727 10.1746 7.72054C9.95956 7.86161 9.80308 8.00431 9.5076 8.30008L8.97104 8.83694C8.90037 8.90765 7.94075 8.42707 7.00923 7.49463C6.0772 6.56169 5.59696 5.60202 5.6673 5.53168L6.20423 4.99446C6.29798 4.90062 6.34279 4.85519 6.40027 4.79478C6.52002 4.66892 6.61917 4.55471 6.70518 4.43879ZM9.9608 9.82733L10.4975 9.29037C10.6601 9.12759 10.7655 9.0275 10.8512 8.9585C12.0274 9.80314 12.7086 10.3342 12.9868 10.6233C13.1539 10.7969 13.1279 11.1136 12.9827 11.2671C12.7817 11.4795 12.5206 11.7408 12.2002 12.0498C10.9271 13.3234 7.57307 12.3558 4.86256 9.64258C2.15121 6.92856 1.18398 3.574 2.44745 2.30984C2.79874 1.95306 2.91004 1.84181 3.24865 1.50817C3.37561 1.38308 3.72143 1.35498 3.87587 1.50755C4.17493 1.80297 4.72966 2.51326 5.54571 3.65001C5.50347 3.70246 5.4507 3.76173 5.38649 3.82921C5.33936 3.87874 5.3001 3.91854 5.21426 4.00446L4.67786 4.54116C3.76533 5.45362 4.54247 7.00657 6.01927 8.48482C7.49505 9.96205 9.04858 10.7401 9.9608 9.82733Z" fill="#313131"/>
</svg>
