<svg width="17" height="16" viewBox="0 0 17 16" fill="none" xmlns="http://www.w3.org/2000/svg">
<path fill-rule="evenodd" clip-rule="evenodd" d="M7.59002 5.21417C7.98423 4.68293 8.12559 4.12304 7.67975 3.62883C6.67924 2.22885 6.00637 1.3631 5.58432 0.946178C4.78194 0.153555 3.462 0.26077 2.76708 0.945501C2.39383 1.31328 2.26747 1.43957 1.88423 1.82884C-0.250508 3.96472 1.05136 8.4799 4.51221 11.9441C7.97228 15.4076 12.487 16.7102 14.6262 14.5698C14.9799 14.2289 15.2793 13.9293 15.5155 13.6797C16.1965 12.9599 16.2999 11.6982 15.511 10.8785C15.1065 10.4582 14.281 9.81786 12.8221 8.77431C12.3753 8.37477 11.8455 8.46136 11.3598 8.78002C11.1261 8.9333 10.9561 9.08835 10.635 9.40973L10.052 9.99306C9.97525 10.0699 8.93255 9.54771 7.92039 8.53456C6.90768 7.52085 6.38586 6.4781 6.46229 6.40167L7.0457 5.81794C7.14756 5.71598 7.19626 5.66661 7.25871 5.60098C7.38883 5.46423 7.49656 5.34012 7.59002 5.21417ZM11.1275 11.0691L11.7107 10.4856C11.8873 10.3088 12.0019 10.2 12.095 10.125C13.373 11.0428 14.1132 11.6199 14.4155 11.934C14.597 12.1226 14.5688 12.4667 14.411 12.6335C14.1926 12.8643 13.9089 13.1482 13.5608 13.484C12.1775 14.8678 8.53308 13.8164 5.58793 10.8683C2.64186 7.91937 1.5909 4.2744 2.96375 2.9008C3.34545 2.51313 3.46638 2.39226 3.8343 2.02973C3.97225 1.89381 4.34801 1.86328 4.51583 2.02906C4.84077 2.35005 5.44353 3.12184 6.33022 4.35699C6.28432 4.41398 6.22699 4.47838 6.15722 4.5517C6.10601 4.60552 6.06335 4.64877 5.97008 4.74213L5.38724 5.32529C4.39571 6.31673 5.24013 8.00413 6.84477 9.61034C8.44831 11.2155 10.1363 12.0608 11.1275 11.0691Z" fill="white"/>
</svg>
