<svg width="32" height="32" viewBox="0 0 32 32" fill="none" xmlns="http://www.w3.org/2000/svg">
<circle cx="16" cy="16" r="16" fill="#4FDCAB"/>
<path fill-rule="evenodd" clip-rule="evenodd" d="M16.1818 26C10.7273 23.5701 8 21.1458 8 18.7273V9.63636C8 8.93855 8.26782 8.77638 9.00903 8.32754C9.23344 8.19164 9.50126 8.02946 9.81818 7.81818C9.96527 7.72013 13.0575 6 16.1818 6C18.9048 6 21.1818 6.90909 22.5455 7.81818C22.8624 8.02946 23.1302 8.19164 23.3546 8.32753L23.3546 8.32754C24.0958 8.77638 24.3636 8.93855 24.3636 9.63636C24.3816 9.83385 24.3728 14.0336 24.3671 16.7223V16.7225L24.3671 16.7239C24.3652 17.6401 24.3636 18.3807 24.3636 18.7273C24.3636 21.1515 21.6364 23.5758 16.1818 26ZM22.5455 18.7273C22.5455 18.518 22.5461 18.1671 22.5472 17.5952L22.5509 15.8195C22.552 15.2451 22.553 14.7521 22.5537 14.2817C22.5571 12.2525 22.5562 10.5108 22.5542 9.97213L22.4294 9.89463L22.4293 9.89462C22.1354 9.71224 21.7522 9.47455 21.537 9.33106C20.1949 8.43634 18.2366 7.81824 16.1819 7.81824C14.2165 7.81824 11.6625 8.77394 10.8268 9.33106C10.6116 9.47455 10.2284 9.71224 9.93445 9.89461L9.81825 9.96672V18.7273C9.81825 20.0986 11.8447 21.9716 16.1827 24.0019C20.5202 21.9762 22.5455 20.1039 22.5455 18.7273ZM19.1753 12.6299L15.2727 16.5326L13.1882 14.4481L11.9026 15.7338L15.2727 19.1039L20.461 13.9156L19.1753 12.6299Z" fill="#DFFFF4"/>
</svg>
