<svg width="32" height="11" viewBox="0 0 32 11" fill="none" xmlns="http://www.w3.org/2000/svg">
<path fill-rule="evenodd" clip-rule="evenodd" d="M8.00036 10.7406H5.23095L3.15424 2.77659C3.05567 2.41025 2.84637 2.08638 2.53851 1.93373C1.77021 1.55013 0.923586 1.24484 0 1.09087V0.784255H4.4613C5.07702 0.784255 5.53882 1.24484 5.61578 1.77976L6.6933 7.52449L9.46136 0.784255H12.1538L8.00036 10.7406ZM13.6943 10.7415H11.0789L13.2325 0.785156H15.848L13.6943 10.7415ZM19.2308 3.54254C19.3078 3.00629 19.7696 2.69967 20.3084 2.69967C21.155 2.62269 22.0772 2.77666 22.8469 3.15894L23.3087 1.01528C22.539 0.708659 21.6924 0.554688 20.9241 0.554688C18.3856 0.554688 16.5384 1.9338 16.5384 3.84783C16.5384 5.30392 17.8468 6.06847 18.7704 6.52906C19.7696 6.98832 20.1544 7.29494 20.0775 7.7542C20.0775 8.44309 19.3078 8.74971 18.5395 8.74971C17.6159 8.74971 16.6923 8.52008 15.8471 8.13647L15.3853 10.2815C16.3088 10.6637 17.308 10.8177 18.2316 10.8177C21.078 10.8934 22.8469 9.51558 22.8469 7.44758C22.8469 4.84333 19.2308 4.69069 19.2308 3.54254ZM31.9998 10.7415L29.923 0.785157H27.6924C27.2306 0.785157 26.7688 1.09177 26.6149 1.55103L22.7693 10.7415H25.4617L25.9991 9.28675H29.3073L29.6152 10.7415H31.9998ZM28.0783 3.46533L28.8466 7.21773H26.6929L28.0783 3.46533Z" fill="#3453BA"/>
</svg>
