<svg width="13" height="13" viewBox="0 0 13 13" fill="none" xmlns="http://www.w3.org/2000/svg">
<path d="M8.91372 6.96106C9.55412 6.45998 10.0216 5.77284 10.251 4.99525C10.4804 4.21767 10.4605 3.38829 10.1939 2.62251C9.92728 1.85674 9.42731 1.19264 8.76353 0.722612C8.09975 0.252584 7.30516 0 6.49031 0C5.67546 0 4.88088 0.252584 4.2171 0.722612C3.55332 1.19264 3.05335 1.85674 2.78675 2.62251C2.52016 3.38829 2.50019 4.21767 2.72963 4.99525C2.95907 5.77284 3.4265 6.45998 4.0669 6.96106C2.96956 7.39828 2.01209 8.12346 1.29657 9.05929C0.581049 9.99512 0.134297 11.1065 0.00394006 12.275C-0.00549582 12.3603 0.00205655 12.4466 0.0261658 12.529C0.050275 12.6114 0.090469 12.6883 0.144453 12.7553C0.253478 12.8905 0.412055 12.9771 0.585297 12.9961C0.758539 13.015 0.932255 12.9648 1.06823 12.8563C1.20421 12.7479 1.2913 12.5902 1.31036 12.4179C1.45379 11.148 2.06265 9.9752 3.02061 9.12353C3.97856 8.27185 5.21845 7.80104 6.50338 7.80104C7.78831 7.80104 9.02819 8.27185 9.98615 9.12353C10.9441 9.9752 11.553 11.148 11.6964 12.4179C11.7142 12.5775 11.7907 12.725 11.9114 12.8317C12.032 12.9385 12.1881 12.9971 12.3496 12.9961H12.4215C12.5927 12.9765 12.7492 12.8904 12.8569 12.7565C12.9645 12.6227 13.0146 12.4519 12.9963 12.2815C12.8653 11.1097 12.4161 9.99545 11.6969 9.05818C10.9777 8.12091 10.0156 7.39597 8.91372 6.96106ZM6.49031 6.49982C5.97354 6.49982 5.46838 6.34742 5.0387 6.0619C4.60902 5.77637 4.27412 5.37054 4.07636 4.89573C3.8786 4.42091 3.82686 3.89844 3.92768 3.39438C4.02849 2.89032 4.27734 2.42731 4.64276 2.0639C5.00817 1.7005 5.47373 1.45301 5.98057 1.35275C6.48741 1.25249 7.01277 1.30395 7.4902 1.50062C7.96764 1.69729 8.37571 2.03035 8.66281 2.45767C8.94991 2.88499 9.10315 3.38739 9.10315 3.90132C9.10315 4.59049 8.82787 5.25143 8.33787 5.73874C7.84787 6.22605 7.18328 6.49982 6.49031 6.49982Z" fill="#313131"/>
</svg>
