<svg width="19" height="12" viewBox="0 0 19 12" fill="none" xmlns="http://www.w3.org/2000/svg">
<path d="M11.963 9.99967H7.03711V1.33301H11.963V9.99967Z" fill="#FF5F00"/>
<path d="M7.52623 5.66683C7.52623 3.85936 8.43565 2.24932 9.85185 1.21175C8.81622 0.45302 7.5092 0.000163078 6.08874 0.000163078C2.72594 0.000163078 0 2.53718 0 5.66683C0 8.79648 2.72594 11.3335 6.08874 11.3335C7.5092 11.3335 8.81622 10.8806 9.85185 10.1219C8.43565 9.08434 7.52623 7.4743 7.52623 5.66683Z" fill="#EB001B"/>
<path d="M18.9997 5.66634C18.9997 8.796 16.4686 11.333 13.3461 11.333C12.0272 11.333 10.8135 10.8802 9.85156 10.1214C11.1669 9.08385 12.0113 7.47381 12.0113 5.66634C12.0113 3.85887 11.1669 2.24883 9.85156 1.21126C10.8135 0.452532 12.0272 -0.000325203 13.3461 -0.000325203C16.4686 -0.000325203 18.9997 2.53669 18.9997 5.66634Z" fill="#F79E1B"/>
</svg>
