<svg width="17" height="17" viewBox="0 0 17 17" fill="none" xmlns="http://www.w3.org/2000/svg">
<path d="M8.5 0C6.81886 0 5.17547 0.498516 3.77766 1.43251C2.37984 2.3665 1.29037 3.69402 0.647028 5.24719C0.00368295 6.80036 -0.164645 8.50943 0.163329 10.1583C0.491303 11.8071 1.30085 13.3217 2.4896 14.5104C3.67834 15.6992 5.1929 16.5087 6.84173 16.8367C8.49057 17.1646 10.1996 16.9963 11.7528 16.353C13.306 15.7096 14.6335 14.6202 15.5675 13.2223C16.5015 11.8245 17 10.1811 17 8.5C17 6.24566 16.1045 4.08365 14.5104 2.48959C12.9164 0.895533 10.7543 0 8.5 0ZM8.5 15.4545C7.12452 15.4545 5.77993 15.0467 4.63626 14.2825C3.4926 13.5183 2.60121 12.4322 2.07484 11.1614C1.54847 9.89061 1.41074 8.49228 1.67909 7.14323C1.94743 5.79419 2.60979 4.555 3.5824 3.58239C4.55501 2.60978 5.79419 1.94743 7.14324 1.67908C8.49229 1.41074 9.89061 1.54846 11.1614 2.07484C12.4322 2.60121 13.5183 3.49259 14.2825 4.63626C15.0467 5.77993 15.4545 7.12452 15.4545 8.5C15.4545 10.3445 14.7218 12.1134 13.4176 13.4176C12.1134 14.7218 10.3445 15.4545 8.5 15.4545ZM10.0455 4.63636V3.86364C10.0455 3.6587 9.96404 3.46215 9.81913 3.31724C9.67421 3.17232 9.47767 3.09091 9.27273 3.09091C9.06779 3.09091 8.87124 3.17232 8.72633 3.31724C8.58141 3.46215 8.5 3.6587 8.5 3.86364V4.63636H7.72727V3.86364C7.72727 3.6587 7.64586 3.46215 7.50095 3.31724C7.35603 3.17232 7.15949 3.09091 6.95455 3.09091C6.74961 3.09091 6.55306 3.17232 6.40815 3.31724C6.26323 3.46215 6.18182 3.6587 6.18182 3.86364V4.63636H5.40909C5.20415 4.63636 5.00761 4.71777 4.86269 4.86269C4.71778 5.0076 4.63637 5.20415 4.63637 5.40909C4.63637 5.61403 4.71778 5.81058 4.86269 5.95549C5.00761 6.1004 5.20415 6.18182 5.40909 6.18182H6.18182V10.8182H5.40909C5.20415 10.8182 5.00761 10.8996 4.86269 11.0445C4.71778 11.1894 4.63637 11.386 4.63637 11.5909C4.63637 11.7958 4.71778 11.9924 4.86269 12.1373C5.00761 12.2822 5.20415 12.3636 5.40909 12.3636H6.18182V13.1364C6.18182 13.3413 6.26323 13.5378 6.40815 13.6828C6.55306 13.8277 6.74961 13.9091 6.95455 13.9091C7.15949 13.9091 7.35603 13.8277 7.50095 13.6828C7.64586 13.5378 7.72727 13.3413 7.72727 13.1364V12.3636H8.5V13.1364C8.5 13.3413 8.58141 13.5378 8.72633 13.6828C8.87124 13.8277 9.06779 13.9091 9.27273 13.9091C9.47767 13.9091 9.67421 13.8277 9.81913 13.6828C9.96404 13.5378 10.0455 13.3413 10.0455 13.1364V12.3636C10.6603 12.3636 11.2499 12.1194 11.6847 11.6847C12.1194 11.2499 12.3636 10.6603 12.3636 10.0455C12.3623 9.47461 12.1505 8.92432 11.7686 8.5C12.1505 8.07568 12.3623 7.52538 12.3636 6.95454C12.3636 6.33972 12.1194 5.75009 11.6847 5.31534C11.2499 4.8806 10.6603 4.63636 10.0455 4.63636ZM10.0455 10.8182H7.72727V9.27273H10.0455C10.2504 9.27273 10.4469 9.35414 10.5919 9.49905C10.7368 9.64397 10.8182 9.84051 10.8182 10.0455C10.8182 10.2504 10.7368 10.4469 10.5919 10.5919C10.4469 10.7368 10.2504 10.8182 10.0455 10.8182ZM10.0455 7.72727H7.72727V6.18182H10.0455C10.2504 6.18182 10.4469 6.26323 10.5919 6.40814C10.7368 6.55306 10.8182 6.7496 10.8182 6.95454C10.8182 7.15948 10.7368 7.35603 10.5919 7.50094C10.4469 7.64586 10.2504 7.72727 10.0455 7.72727Z" fill="#4A4A4A"/>
</svg>
