<svg width="13" height="10" viewBox="0 0 13 10" fill="none" xmlns="http://www.w3.org/2000/svg">
<path d="M3.25 6.66667H5.2C5.37239 6.66667 5.53772 6.59643 5.65962 6.4714C5.78152 6.34638 5.85 6.17681 5.85 6C5.85 5.82319 5.78152 5.65362 5.65962 5.5286C5.53772 5.40357 5.37239 5.33333 5.2 5.33333H3.25C3.07761 5.33333 2.91228 5.40357 2.79038 5.5286C2.66848 5.65362 2.6 5.82319 2.6 6C2.6 6.17681 2.66848 6.34638 2.79038 6.4714C2.91228 6.59643 3.07761 6.66667 3.25 6.66667ZM11.05 0H1.95C1.43283 0 0.936838 0.210714 0.571142 0.585787C0.205446 0.960859 0 1.46957 0 2V8C0 8.53043 0.205446 9.03914 0.571142 9.41421C0.936838 9.78929 1.43283 10 1.95 10H11.05C11.5672 10 12.0632 9.78929 12.4289 9.41421C12.7946 9.03914 13 8.53043 13 8V2C13 1.46957 12.7946 0.960859 12.4289 0.585787C12.0632 0.210714 11.5672 0 11.05 0ZM11.7 8C11.7 8.17681 11.6315 8.34638 11.5096 8.47141C11.3877 8.59643 11.2224 8.66667 11.05 8.66667H1.95C1.77761 8.66667 1.61228 8.59643 1.49038 8.47141C1.36848 8.34638 1.3 8.17681 1.3 8V4H11.7V8ZM11.7 2.66667H1.3V2C1.3 1.82319 1.36848 1.65362 1.49038 1.5286C1.61228 1.40357 1.77761 1.33333 1.95 1.33333H11.05C11.2224 1.33333 11.3877 1.40357 11.5096 1.5286C11.6315 1.65362 11.7 1.82319 11.7 2V2.66667Z" fill="#4A4A4A"/>
</svg>
