<svg width="32" height="32" viewBox="0 0 32 32" fill="none" xmlns="http://www.w3.org/2000/svg">
<circle cx="16" cy="16" r="16" fill="#5CD5F0"/>
<path fill-rule="evenodd" clip-rule="evenodd" d="M8 18.7273C8 21.1458 10.7273 23.5701 16.1818 26C21.6364 23.5758 24.3636 21.1515 24.3636 18.7273C24.3636 18.3831 24.3652 17.6504 24.3671 16.743L24.3671 16.7239L24.3671 16.7225V16.7223V16.722V16.7215V16.7212C24.3728 14.0324 24.3816 9.83382 24.3636 9.63636C24.3636 8.93855 24.0958 8.77638 23.3546 8.32754L23.3546 8.32753L23.3545 8.32749C23.1301 8.1916 22.8623 8.02944 22.5455 7.81818C21.1818 6.90909 18.9048 6 16.1818 6C13.0575 6 9.96527 7.72013 9.81818 7.81818C9.50126 8.02946 9.23344 8.19164 9.00903 8.32754C8.26782 8.77638 8 8.93855 8 9.63636V18.7273ZM22.5472 17.5952C22.5461 18.1671 22.5455 18.518 22.5455 18.7273C22.5455 20.1039 20.5202 21.9762 16.1827 24.0019C11.8447 21.9716 9.81825 20.0986 9.81825 18.7273V9.96672L9.93445 9.89461C10.2284 9.71224 10.6116 9.47455 10.8268 9.33106C11.6625 8.77394 14.2165 7.81824 16.1819 7.81824C18.2366 7.81824 20.1949 8.43634 21.537 9.33106C21.7522 9.47455 22.1354 9.71224 22.4293 9.89462L22.4294 9.89463L22.5542 9.97213C22.5562 10.5108 22.5571 12.2525 22.5537 14.2817C22.553 14.7521 22.552 15.2451 22.5509 15.8195L22.5472 17.5952ZM13.4545 13.2728H18.9091C19.9132 13.2728 20.7272 14.0868 20.7272 15.091V18.7273C20.7272 19.7315 19.9132 20.5455 18.9091 20.5455H13.4545C12.4504 20.5455 11.6363 19.7315 11.6363 18.7273V15.091C11.6363 14.0868 12.4504 13.2728 13.4545 13.2728ZM13.4546 18.7272V15.0909H18.9091V18.7272H13.4546ZM15.2727 13.2727H13.4546V11.4545C13.4546 9.94824 14.6756 8.7272 16.1818 8.7272C17.6881 8.7272 18.9091 9.94824 18.9091 11.4545V13.2727H17.0909V11.4545C17.0909 10.9524 16.6839 10.5454 16.1818 10.5454C15.6798 10.5454 15.2727 10.9524 15.2727 11.4545V13.2727ZM15.2728 16.9091C15.2728 17.4112 15.6798 17.8182 16.1819 17.8182C16.684 17.8182 17.091 17.4112 17.091 16.9091C17.091 16.407 16.684 16 16.1819 16C15.6798 16 15.2728 16.407 15.2728 16.9091Z" fill="#DFF9FF"/>
</svg>
