<svg width="13" height="13" viewBox="0 0 13 13" fill="none" xmlns="http://www.w3.org/2000/svg">
<path d="M10.2146 7.95829C10.049 8.11876 9.97291 8.35084 10.0106 8.57844L10.579 11.724C10.627 11.9906 10.5144 12.2604 10.2913 12.4144C10.0726 12.5743 9.78175 12.5935 9.54328 12.4656L6.71167 10.9887C6.61321 10.9363 6.50389 10.9082 6.39201 10.905H6.21875C6.15865 10.9139 6.09983 10.9331 6.04613 10.9625L3.21388 12.4464C3.07386 12.5167 2.91531 12.5417 2.75995 12.5167C2.38147 12.4451 2.12893 12.0845 2.19094 11.7041L2.75995 8.55862C2.79767 8.3291 2.72159 8.09575 2.556 7.93272L0.247371 5.69505C0.054292 5.50772 -0.012838 5.22642 0.07539 4.9726C0.161061 4.71943 0.379713 4.53466 0.643758 4.4931L3.82125 4.03214C4.06291 4.00721 4.27517 3.86016 4.38386 3.64279L5.784 0.772181C5.81724 0.708247 5.86008 0.649429 5.91187 0.599561L5.96941 0.554807C5.99945 0.521562 6.03398 0.494071 6.07234 0.471694L6.14203 0.446121L6.25071 0.401367H6.51987C6.76026 0.426301 6.97188 0.570151 7.08249 0.784967L8.50117 3.64279C8.60346 3.85185 8.80229 3.99698 9.03181 4.03214L12.2093 4.4931C12.4778 4.53146 12.7022 4.71687 12.7911 4.9726C12.8748 5.22897 12.8026 5.51028 12.6057 5.69505L10.2146 7.95829Z" fill="#FFCA38"/>
</svg>
