<svg width="34" height="34" viewBox="0 0 34 34" fill="none" xmlns="http://www.w3.org/2000/svg">
<path fill-rule="evenodd" clip-rule="evenodd" d="M17 34C26.3888 34 34 26.3888 34 17C34 7.61116 26.3888 0 17 0C7.61116 0 0 7.61116 0 17C0 26.3888 7.61116 34 17 34Z" fill="#2F2F2F" fill-opacity="0.63"/>
<path fill-rule="evenodd" clip-rule="evenodd" d="M17.4597 7.35156V12.1546C11.442 12.4379 8.27051 15.5651 8.27051 21.3226V23.5411L9.8392 21.9724C11.9039 19.9077 14.4183 19.0427 17.4597 19.367V24.2666L27.1254 15.8091L17.4597 7.35156ZM19.2975 13.9707V11.4012L24.3345 15.8086L19.2975 20.2159V17.7869L18.5297 17.6589C15.3919 17.136 12.6302 17.6597 10.2933 19.2238C10.9809 15.6717 13.5996 13.9707 18.3786 13.9707H19.2975Z" fill="white"/>
</svg>
