<svg width="37" height="37" viewBox="0 0 37 37" fill="none" xmlns="http://www.w3.org/2000/svg">
<circle cx="18.5" cy="18.5" r="18.5" fill="#424242"/>
<path fill-rule="evenodd" clip-rule="evenodd" d="M13.8333 10.7976C11.0036 10.7976 8.83333 13.0852 8.83333 16.298C8.83333 18.6685 10.1782 21.0822 12.9744 23.5481C14.4435 24.8436 16.3183 26.1219 17.6273 26.7865L18 26.9757L18.3727 26.7865C19.6817 26.1219 21.5565 24.8436 23.0256 23.5481C25.8218 21.0822 27.1667 18.6685 27.1667 16.298C27.1667 13.1259 24.9746 10.81 22.1718 10.7976C20.9428 10.7977 20.2349 10.9376 19.4138 11.3317C19.1088 11.4781 18.8235 11.6539 18.5587 11.8588L17.996 12.2943L17.4293 11.8637C17.1743 11.6699 16.8993 11.5015 16.6053 11.3589C15.76 10.9489 15.0068 10.7976 13.8333 10.7976ZM7 16.298C7 12.28 9.80985 9 13.8333 9C15.2187 9 16.2641 9.18797 17.4181 9.74759C17.6129 9.8421 17.8024 9.9453 17.9862 10.0571C18.1867 9.93312 18.394 9.81974 18.6078 9.71714C19.7474 9.1702 20.75 9 22.1738 9.00001L22.1776 9.00001C26.166 9.01621 29 12.3164 29 16.298C29 19.3884 27.2395 22.2496 24.2516 24.8846C22.6845 26.2665 20.6829 27.6378 19.2157 28.3827L18 29L16.7843 28.3827C15.3171 27.6378 13.3155 26.2665 11.7484 24.8846C8.76045 22.2496 7 19.3884 7 16.298Z" fill="#FDCD03"/>
</svg>
