<svg width="16" height="17" viewBox="0 0 16 17" fill="none" xmlns="http://www.w3.org/2000/svg">
<path d="M12.1137 6.22252H4.51572C4.31421 6.22252 4.12095 6.30668 3.97846 6.4565C3.83597 6.60632 3.75592 6.80952 3.75592 7.02139C3.75592 7.23327 3.83597 7.43647 3.97846 7.58628C4.12095 7.7361 4.31421 7.82027 4.51572 7.82027H12.1137C12.3152 7.82027 12.5085 7.7361 12.651 7.58628C12.7935 7.43647 12.8735 7.23327 12.8735 7.02139C12.8735 6.80952 12.7935 6.60632 12.651 6.4565C12.5085 6.30668 12.3152 6.22252 12.1137 6.22252ZM9.07452 9.41803H4.51572C4.31421 9.41803 4.12095 9.50219 3.97846 9.65201C3.83597 9.80183 3.75592 10.005 3.75592 10.2169C3.75592 10.4288 3.83597 10.632 3.97846 10.7818C4.12095 10.9316 4.31421 11.0158 4.51572 11.0158H9.07452C9.27603 11.0158 9.46928 10.9316 9.61177 10.7818C9.75426 10.632 9.83431 10.4288 9.83431 10.2169C9.83431 10.005 9.75426 9.80183 9.61177 9.65201C9.46928 9.50219 9.27603 9.41803 9.07452 9.41803ZM8.31472 0.630371C7.31693 0.630371 6.32892 0.837007 5.40709 1.23848C4.48526 1.63995 3.64767 2.2284 2.94213 2.97023C1.51723 4.46842 0.716728 6.50039 0.716728 8.61915C0.710086 10.4639 1.31757 12.2529 2.43387 13.676L0.914276 15.2738C0.808848 15.3861 0.73743 15.5288 0.709033 15.6838C0.680636 15.8387 0.696533 15.9991 0.754718 16.1446C0.817826 16.2883 0.92013 16.4091 1.04864 16.4916C1.17716 16.5741 1.32609 16.6146 1.47653 16.6079H8.31472C10.3298 16.6079 12.2624 15.7663 13.6873 14.2681C15.1122 12.7699 15.9127 10.7379 15.9127 8.61915C15.9127 6.50039 15.1122 4.46842 13.6873 2.97023C12.2624 1.47204 10.3298 0.630371 8.31472 0.630371ZM8.31472 15.0102H3.30764L4.01426 14.2672C4.15577 14.1175 4.2352 13.9151 4.2352 13.704C4.2352 13.493 4.15577 13.2905 4.01426 13.1408C3.01936 12.0959 2.39982 10.7206 2.26116 9.2493C2.12251 7.77797 2.47334 6.30161 3.25387 5.07175C4.0344 3.84189 5.19634 2.93462 6.54174 2.50452C7.88713 2.07441 9.33274 2.14808 10.6323 2.71298C11.9318 3.27787 13.0048 4.29904 13.6686 5.6025C14.3323 6.90596 14.5457 8.41108 14.2724 9.86141C13.9991 11.3117 13.2559 12.6176 12.1696 13.5564C11.0832 14.4952 9.72092 15.009 8.31472 15.0102Z" fill="white"/>
</svg>
