<svg width="15" height="15" viewBox="0 0 15 15" fill="none" xmlns="http://www.w3.org/2000/svg">
<path d="M9.6075 7.71C10.0822 7.20018 10.3497 6.53158 10.3575 5.835C10.3575 5.08311 10.0588 4.36202 9.52715 3.83035C8.99548 3.29869 8.27439 3 7.5225 3C6.77061 3 6.04952 3.29869 5.51785 3.83035C4.98619 4.36202 4.6875 5.08311 4.6875 5.835C4.69533 6.53158 4.96277 7.20018 5.4375 7.71C4.77649 8.03915 4.20767 8.52745 3.78219 9.13098C3.35671 9.7345 3.08792 10.4343 3 11.1675C2.97812 11.3664 3.03615 11.5659 3.16133 11.722C3.28651 11.8781 3.46859 11.9781 3.6675 12C3.86641 12.0219 4.06587 11.9638 4.22199 11.8387C4.37812 11.7135 4.47812 11.5314 4.5 11.3325C4.5895 10.6059 4.94163 9.93702 5.49006 9.45199C6.0385 8.96696 6.74536 8.69923 7.4775 8.69923C8.20964 8.69923 8.9165 8.96696 9.46494 9.45199C10.0134 9.93702 10.3655 10.6059 10.455 11.3325C10.4759 11.5248 10.5702 11.7016 10.7184 11.826C10.8665 11.9504 11.057 12.0127 11.25 12H11.3325C11.5291 11.9774 11.7088 11.878 11.8324 11.7234C11.956 11.5689 12.0136 11.3718 11.9925 11.175C11.9111 10.4457 11.6508 9.74777 11.2347 9.14328C10.8186 8.53879 10.2597 8.04645 9.6075 7.71ZM7.5 7.17C7.23596 7.17 6.97785 7.0917 6.75831 6.94501C6.53877 6.79832 6.36766 6.58982 6.26662 6.34588C6.16558 6.10194 6.13914 5.83352 6.19065 5.57455C6.24216 5.31559 6.36931 5.07772 6.55601 4.89101C6.74272 4.70431 6.98059 4.57716 7.23955 4.52565C7.49852 4.47414 7.76694 4.50058 8.01088 4.60162C8.25482 4.70266 8.46332 4.87377 8.61001 5.09331C8.7567 5.31285 8.835 5.57096 8.835 5.835C8.835 6.18906 8.69435 6.52863 8.44399 6.77899C8.19363 7.02935 7.85406 7.17 7.5 7.17ZM12.75 0H2.25C1.65326 0 1.08097 0.237053 0.65901 0.65901C0.237053 1.08097 0 1.65326 0 2.25V12.75C0 13.3467 0.237053 13.919 0.65901 14.341C1.08097 14.7629 1.65326 15 2.25 15H12.75C13.3467 15 13.919 14.7629 14.341 14.341C14.7629 13.919 15 13.3467 15 12.75V2.25C15 1.65326 14.7629 1.08097 14.341 0.65901C13.919 0.237053 13.3467 0 12.75 0ZM13.5 12.75C13.5 12.9489 13.421 13.1397 13.2803 13.2803C13.1397 13.421 12.9489 13.5 12.75 13.5H2.25C2.05109 13.5 1.86032 13.421 1.71967 13.2803C1.57902 13.1397 1.5 12.9489 1.5 12.75V2.25C1.5 2.05109 1.57902 1.86032 1.71967 1.71967C1.86032 1.57902 2.05109 1.5 2.25 1.5H12.75C12.9489 1.5 13.1397 1.57902 13.2803 1.71967C13.421 1.86032 13.5 2.05109 13.5 2.25V12.75Z" fill="#8E8E93"/>
</svg>
