<svg width="18" height="19" viewBox="0 0 18 19" fill="none" xmlns="http://www.w3.org/2000/svg">
<path d="M17 15.2H16V14.25C16 13.998 15.8946 13.7564 15.7071 13.5782C15.5196 13.4001 15.2652 13.3 15 13.3C14.7348 13.3 14.4804 13.4001 14.2929 13.5782C14.1054 13.7564 14 13.998 14 14.25V15.2H13C12.7348 15.2 12.4804 15.3001 12.2929 15.4782C12.1054 15.6564 12 15.898 12 16.15C12 16.402 12.1054 16.6436 12.2929 16.8218C12.4804 16.9999 12.7348 17.1 13 17.1H14V18.05C14 18.302 14.1054 18.5436 14.2929 18.7218C14.4804 18.8999 14.7348 19 15 19C15.2652 19 15.5196 18.8999 15.7071 18.7218C15.8946 18.5436 16 18.302 16 18.05V17.1H17C17.2652 17.1 17.5196 16.9999 17.7071 16.8218C17.8946 16.6436 18 16.402 18 16.15C18 15.898 17.8946 15.6564 17.7071 15.4782C17.5196 15.3001 17.2652 15.2 17 15.2ZM10 17.1H3C2.73478 17.1 2.48043 16.9999 2.29289 16.8218C2.10536 16.6436 2 16.402 2 16.15V2.85C2 2.59804 2.10536 2.35641 2.29289 2.17825C2.48043 2.00009 2.73478 1.9 3 1.9H8V4.75C8 5.50587 8.31607 6.23078 8.87868 6.76525C9.44129 7.29973 10.2044 7.6 11 7.6H14V10.45C14 10.702 14.1054 10.9436 14.2929 11.1218C14.4804 11.2999 14.7348 11.4 15 11.4C15.2652 11.4 15.5196 11.2999 15.7071 11.1218C15.8946 10.9436 16 10.702 16 10.45V6.65C16 6.65 16 6.65 16 6.593C15.9896 6.50573 15.9695 6.41975 15.94 6.3365V6.251C15.8919 6.15332 15.8278 6.06353 15.75 5.985L9.75 0.285C9.66734 0.211105 9.57282 0.150177 9.47 0.1045C9.43692 0.0989989 9.40308 0.0989989 9.37 0.1045C9.27276 0.0551029 9.16826 0.0198759 9.06 0H3C2.20435 0 1.44129 0.300267 0.87868 0.834746C0.316071 1.36922 0 2.09413 0 2.85V16.15C0 16.9059 0.316071 17.6308 0.87868 18.1653C1.44129 18.6997 2.20435 19 3 19H10C10.2652 19 10.5196 18.8999 10.7071 18.7218C10.8946 18.5436 11 18.302 11 18.05C11 17.798 10.8946 17.5564 10.7071 17.3782C10.5196 17.2001 10.2652 17.1 10 17.1ZM10 3.2395L12.59 5.7H11C10.7348 5.7 10.4804 5.59991 10.2929 5.42175C10.1054 5.24359 10 5.00196 10 4.75V3.2395ZM5 5.7C4.73478 5.7 4.48043 5.80009 4.29289 5.97825C4.10536 6.15641 4 6.39804 4 6.65C4 6.90196 4.10536 7.14359 4.29289 7.32175C4.48043 7.49991 4.73478 7.6 5 7.6H6C6.26522 7.6 6.51957 7.49991 6.70711 7.32175C6.89464 7.14359 7 6.90196 7 6.65C7 6.39804 6.89464 6.15641 6.70711 5.97825C6.51957 5.80009 6.26522 5.7 6 5.7H5ZM10 13.3H5C4.73478 13.3 4.48043 13.4001 4.29289 13.5782C4.10536 13.7564 4 13.998 4 14.25C4 14.502 4.10536 14.7436 4.29289 14.9218C4.48043 15.0999 4.73478 15.2 5 15.2H10C10.2652 15.2 10.5196 15.0999 10.7071 14.9218C10.8946 14.7436 11 14.502 11 14.25C11 13.998 10.8946 13.7564 10.7071 13.5782C10.5196 13.4001 10.2652 13.3 10 13.3ZM11 9.5H5C4.73478 9.5 4.48043 9.60009 4.29289 9.77825C4.10536 9.95641 4 10.198 4 10.45C4 10.702 4.10536 10.9436 4.29289 11.1218C4.48043 11.2999 4.73478 11.4 5 11.4H11C11.2652 11.4 11.5196 11.2999 11.7071 11.1218C11.8946 10.9436 12 10.702 12 10.45C12 10.198 11.8946 9.95641 11.7071 9.77825C11.5196 9.60009 11.2652 9.5 11 9.5Z" fill="#189B58"/>
</svg>
