<svg width="20" height="19" viewBox="0 0 20 19" fill="none" xmlns="http://www.w3.org/2000/svg">
<path d="M19.222 12.8966L14.9288 8.61293C15.0187 8.17542 15.0632 7.72982 15.0618 7.28318C15.0615 6.05852 14.7524 4.85372 14.1632 3.78012C13.574 2.70652 12.7237 1.79878 11.6908 1.14081C10.6579 0.48283 9.47584 0.0958526 8.25382 0.0156437C7.03179 -0.0645653 5.80927 0.164583 4.69925 0.681907C4.55861 0.746151 4.43579 0.843755 4.34144 0.966244C4.24709 1.08873 4.18407 1.2324 4.15785 1.38478C4.13173 1.53521 4.14227 1.68973 4.18856 1.83524C4.23486 1.98074 4.31555 2.11293 4.4238 2.22062L8.55553 6.34285L6.84585 8.05253L2.72362 3.9208C2.61502 3.81424 2.48241 3.73532 2.33696 3.69069C2.1915 3.64606 2.03745 3.63703 1.88777 3.66435C1.73635 3.68961 1.59331 3.7512 1.4709 3.84383C1.34849 3.93647 1.25036 4.05739 1.1849 4.19625C0.665848 5.30992 0.436899 6.53679 0.519354 7.76271C0.601808 8.98863 0.992987 10.1738 1.6565 11.2079C2.32002 12.2421 3.23431 13.0916 4.31432 13.6774C5.39434 14.2633 6.605 14.5665 7.83366 14.5588C8.2803 14.5603 8.7259 14.5157 9.16341 14.4258L13.4471 18.719C13.5354 18.8081 13.6405 18.8787 13.7562 18.927C13.872 18.9752 13.9961 19 14.1215 19C14.2469 19 14.371 18.9752 14.4868 18.927C14.6025 18.8787 14.7076 18.8081 14.7959 18.719C14.8849 18.6307 14.9556 18.5257 15.0038 18.41C15.052 18.2942 15.0768 18.1701 15.0768 18.0447C15.0768 17.9193 15.052 17.7951 15.0038 17.6794C14.9556 17.5636 14.8849 17.4586 14.7959 17.3703L10.1417 12.7162C10.0254 12.6006 9.8812 12.5172 9.72308 12.4739C9.56496 12.4306 9.39833 12.429 9.2394 12.4692C8.7808 12.592 8.30841 12.6559 7.83366 12.6592C7.12324 12.6654 6.4186 12.5311 5.76033 12.2638C5.10206 11.9966 4.50318 11.6017 3.99817 11.102C3.49317 10.6023 3.09203 10.0076 2.81786 9.35222C2.54368 8.69681 2.4019 7.99362 2.40068 7.28318C2.39945 6.965 2.42486 6.64728 2.47666 6.33335L6.19997 10.0662C6.28827 10.1552 6.39332 10.2258 6.50906 10.2741C6.62481 10.3223 6.74895 10.3471 6.87434 10.3471C6.99973 10.3471 7.12388 10.3223 7.23962 10.2741C7.35537 10.2258 7.46042 10.1552 7.54872 10.0662L10.5692 7.01723C10.7403 6.84012 10.836 6.60342 10.836 6.3571C10.836 6.11077 10.7403 5.87408 10.5692 5.69697L6.87434 1.97367C7.18834 1.92239 7.50601 1.89697 7.82416 1.89768C9.25084 1.9002 10.6182 2.46871 11.6261 3.47841C12.6341 4.48811 13.2002 5.8565 13.2002 7.28318C13.1968 7.75792 13.133 8.23031 13.0102 8.68891C12.97 8.84784 12.9716 9.01447 13.0149 9.17259C13.0582 9.33071 13.1416 9.47494 13.2572 9.59125L17.9113 14.2454C18.0901 14.4242 18.3327 14.5247 18.5857 14.5247C18.8386 14.5247 19.0812 14.4242 19.26 14.2454C19.4389 14.0665 19.5394 13.8239 19.5394 13.571C19.5394 13.3181 19.4389 13.0755 19.26 12.8966H19.222Z" fill="#564FF0"/>
</svg>
