<svg width="22" height="22" viewBox="0 0 22 22" fill="none" xmlns="http://www.w3.org/2000/svg">
<path fill-rule="evenodd" clip-rule="evenodd" d="M12 6V2.05493C16.5 2.55237 20 6.36745 20 11C20 15.9706 15.9706 20 11 20C6.02944 20 2 15.9706 2 11C2 8.57377 2.96316 6.30267 4.648 4.6241L3.23642 3.20726C1.17864 5.25738 0 8.03658 0 11C0 17.0751 4.92487 22 11 22C17.0751 22 22 17.0751 22 11C22 4.92487 17.0751 0 11 0H10V6H12ZM11 9C10.8208 9 10.6472 9.02356 10.482 9.06774L6.70711 5.29289L5.29289 6.70711L9.06774 10.482C9.02356 10.6472 9 10.8208 9 11C9 12.1046 9.89543 13 11 13C12.1046 13 13 12.1046 13 11C13 9.89543 12.1046 9 11 9Z" fill="#359F32"/>
</svg>
