<svg width="18" height="21" viewBox="0 0 18 21" fill="none" xmlns="http://www.w3.org/2000/svg">
<path d="M14.9417 2.60079C13.3003 0.935533 11.074 -1.75464e-08 8.75264 0C6.43129 1.75464e-08 4.20503 0.935533 2.56359 2.60079C0.92215 4.26605 1.72954e-08 6.52463 0 8.87966C-1.72954e-08 11.2347 0.92215 13.4933 2.56359 15.1585L7.99964 20.6839C8.09553 20.782 8.20962 20.8599 8.33531 20.913C8.46101 20.9661 8.59584 20.9935 8.73201 20.9935C8.86818 20.9935 9.003 20.9661 9.1287 20.913C9.2544 20.8599 9.36849 20.782 9.46438 20.6839L14.9417 15.1062C16.5763 13.4479 17.4946 11.1987 17.4946 8.8535C17.4946 6.50829 16.5763 4.25912 14.9417 2.60079ZM13.4666 13.6097L8.75264 18.4131L4.03865 13.6097C3.10734 12.6641 2.47331 11.4595 2.21669 10.1483C1.96007 8.8371 2.09238 7.47816 2.59691 6.24325C3.10144 5.00833 3.95552 3.95289 5.05121 3.21034C6.14689 2.46779 7.43497 2.07146 8.75264 2.07146C10.0703 2.07146 11.3584 2.46779 12.4541 3.21034C13.5498 3.95289 14.4038 5.00833 14.9084 6.24325C15.4129 7.47816 15.5452 8.8371 15.2886 10.1483C15.032 11.4595 14.3979 12.6641 13.4666 13.6097ZM5.65811 5.66697C4.82539 6.51438 4.35779 7.66215 4.35779 8.85873C4.35779 10.0553 4.82539 11.2031 5.65811 12.0505C6.27677 12.6792 7.06467 13.1086 7.92295 13.2847C8.78122 13.4609 9.67166 13.3759 10.4826 13.0406C11.2934 12.7053 11.9887 12.1345 12.481 11.3998C12.9733 10.6652 13.2409 9.79938 13.25 8.91106C13.2547 8.31792 13.142 7.72985 12.9188 7.18163C12.6956 6.63341 12.3662 6.13617 11.9503 5.7193C11.5415 5.29503 11.054 4.95698 10.5159 4.72458C9.97783 4.49219 9.39975 4.37005 8.81494 4.36518C8.23014 4.36032 7.65016 4.47283 7.10839 4.69625C6.56661 4.91966 6.07373 5.24956 5.65811 5.66697ZM10.4959 10.5645C10.105 10.9671 9.58838 11.2195 9.03437 11.2785C8.48037 11.3374 7.92337 11.1993 7.45862 10.8878C6.99387 10.5762 6.65022 10.1106 6.48642 9.57042C6.32263 9.03028 6.34886 8.44918 6.56064 7.92648C6.77242 7.40378 7.15659 6.97195 7.64747 6.7048C8.13834 6.43766 8.70545 6.3518 9.25182 6.4619C9.7982 6.57199 10.2899 6.87122 10.6429 7.30841C10.9959 7.7456 11.1882 8.2936 11.187 8.85873C11.172 9.50469 10.9049 10.1182 10.4443 10.5645H10.4959Z" fill="#CBCBCB"/>
<circle cx="8.7875" cy="8.7875" r="4.1625" fill="#189B58"/>
</svg>
