<svg width="19" height="29" viewBox="0 0 19 29" fill="none" xmlns="http://www.w3.org/2000/svg">
<ellipse cx="9.45651" cy="27.1086" rx="6.93478" ry="1.8913" fill="#189B58"/>
<path d="M16.1532 2.81167C14.3786 1.01139 11.9719 -1.8969e-08 9.46231 0C6.95275 1.8969e-08 4.54597 1.01139 2.77145 2.81167C0.996919 4.61195 1.86977e-08 7.05365 0 9.59963C-1.86977e-08 12.1456 0.996919 14.5873 2.77145 16.3876L8.64826 22.361C8.75192 22.467 8.87526 22.5512 9.01115 22.6086C9.14704 22.6661 9.2928 22.6957 9.44001 22.6957C9.58722 22.6957 9.73298 22.6661 9.86887 22.6086C10.0048 22.5512 10.1281 22.467 10.2318 22.361L16.1532 16.331C17.9203 14.5382 18.913 12.1067 18.913 9.57135C18.913 7.03598 17.9203 4.60446 16.1532 2.81167ZM14.5585 14.7132L9.46231 19.906L4.3661 14.7132C3.35929 13.6909 2.67385 12.3886 2.39642 10.9711C2.11899 9.55363 2.26204 8.0845 2.80747 6.74946C3.35291 5.41442 4.27624 4.2734 5.46076 3.47064C6.64528 2.66788 8.03781 2.23942 9.46231 2.23942C10.8868 2.23942 12.2793 2.66788 13.4639 3.47064C14.6484 4.2734 15.5717 5.41442 16.1172 6.74946C16.6626 8.0845 16.8056 9.55363 16.5282 10.9711C16.2508 12.3886 15.5653 13.6909 14.5585 14.7132ZM6.11688 6.12646C5.21664 7.04257 4.71112 8.28341 4.71112 9.57701C4.71112 10.8706 5.21664 12.1114 6.11688 13.0276C6.7857 13.7072 7.63748 14.1714 8.56535 14.3618C9.49322 14.5523 10.4559 14.4605 11.3325 14.098C12.2091 13.7355 12.9607 13.1184 13.493 12.3242C14.0252 11.5299 14.3145 10.5939 14.3243 9.63357C14.3294 8.99234 14.2076 8.3566 13.9663 7.76393C13.7249 7.17126 13.3689 6.6337 12.9193 6.18302C12.4773 5.72436 11.9503 5.35889 11.3686 5.10766C10.7868 4.85642 10.1619 4.72438 9.52967 4.71912C8.89745 4.71386 8.27044 4.8355 7.68474 5.07702C7.09904 5.31855 6.56619 5.67521 6.11688 6.12646ZM11.3469 11.4211C10.9243 11.8563 10.3658 12.1292 9.76689 12.1929C9.16796 12.2567 8.56581 12.1074 8.06337 11.7706C7.56094 11.4338 7.18942 10.9303 7.01235 10.3464C6.83527 9.76246 6.86364 9.13425 7.09258 8.56917C7.32153 8.00409 7.73685 7.53724 8.26753 7.24844C8.79821 6.95963 9.4113 6.86681 10.002 6.98583C10.5926 7.10486 11.1242 7.42834 11.5058 7.90098C11.8874 8.37362 12.0954 8.96606 12.0941 9.57701C12.0778 10.2753 11.7891 10.9386 11.2911 11.4211H11.3469Z" fill="#CBCBCB"/>
</svg>
